<?xml version="1.0" encoding="UTF-8"?>
<svg version="1.1" xmlns="http://www.w3.org/2000/svg" width="253" height="254">
<path d="M0 0 C8.11482685 8.30409395 14.46744037 17.86515955 20.9296875 27.46875 C27.2951912 36.91307095 34.20017326 45.69085622 42 54 C42.78890625 54.90298828 42.78890625 54.90298828 43.59375 55.82421875 C56.74437373 70.21610034 77.62243695 78.88839767 94.79492188 87.3840332 C129.96425231 104.85491529 129.96425231 104.85491529 134.55859375 117.7421875 C137.21576517 131.33373688 133.6440365 142.58791183 126.375 154 C103.48415747 186.5787272 68.48600397 214.56785679 29 223 C8.52779433 226.31265464 -9.01733891 220.87151335 -25.75 209.1875 C-31.85385134 204.51552958 -37.44686295 199.30355785 -43 194 C-43.7321875 193.3090625 -44.464375 192.618125 -45.21875 191.90625 C-50.63577942 186.66118977 -55.30222283 180.88699434 -60 175 C-60.97294946 173.80516735 -61.94695648 172.6111953 -62.921875 171.41796875 C-89.6416921 138.58881457 -108.09664496 102.40426999 -104.60571289 58.92333984 C-102.23138961 35.91376035 -92.74036304 16.84969491 -75.25 1.6875 C-53.13640513 -15.21461073 -21.76643512 -19.28592969 0 0 Z " fill="#020202" transform="translate(112,25)"/>
</svg>
