<?xml version="1.0" encoding="UTF-8"?>
<svg version="1.1" xmlns="http://www.w3.org/2000/svg" width="149" height="140">
<path d="M0 0 C1.65515625 0.67869141 1.65515625 0.67869141 3.34375 1.37109375 C19.0685201 8.49851672 29.50481368 19.78646103 35.875 35.9375 C41.076067 50.11126867 41.17771763 67.09529386 35 81 C34.59910156 81.92554687 34.19820313 82.85109375 33.78515625 83.8046875 C26.55074448 98.60901998 13.50246142 109.59335643 -2 115 C-15.61750325 119.09115879 -31.97495461 118.78689342 -45 113 C-45.92554688 112.59910156 -46.85109375 112.19820313 -47.8046875 111.78515625 C-62.84913497 104.43340784 -73.17739443 91.5058518 -79 76 C-83.13223432 62.41853056 -82.77166623 45.99077227 -77 33 C-76.59910156 32.07445312 -76.19820312 31.14890625 -75.78515625 30.1953125 C-68.55074448 15.39098002 -55.50246142 4.40664357 -40 -1 C-27.68579051 -4.688955 -11.95332402 -5.02255633 0 0 Z M-55 18 C-55.65484375 18.52722656 -56.3096875 19.05445313 -56.984375 19.59765625 C-66.54493536 28.02799533 -71.7126317 40.32159243 -72.81542969 52.85107422 C-73.64965735 67.37664628 -69.3220176 79.65944517 -60.58984375 91.1796875 C-50.87188224 101.76244498 -38.14217201 108.03544623 -23.81640625 108.94921875 C-10.06623281 109.13217909 2.59596125 105.11446251 13 96 C13.65484375 95.47277344 14.3096875 94.94554688 14.984375 94.40234375 C24.02635801 86.42927734 29.68033211 74.0373556 30.8828125 62.14453125 C31.50818372 45.36373687 26.25823657 31.75906023 15 19.375 C-4.1015931 0.88854295 -35.21437321 0.66679334 -55 18 Z " fill="#E3E3E3" transform="translate(96,14)"/>
</svg>
