<?xml version="1.0" encoding="UTF-8"?>
<svg version="1.1" xmlns="http://www.w3.org/2000/svg" width="258" height="253">
<path d="M0 0 C4.03101483 4.09843212 7.38101354 8.60690239 10.73828125 13.26171875 C11.61709961 14.46054687 11.61709961 14.46054687 12.51367188 15.68359375 C15.90131159 20.33078874 19.14545219 25.05303631 22.31567383 29.85058594 C39.82116229 56.05697146 61.77949761 70.12765607 89.21037292 84.09307861 C128.80415841 104.27185023 128.80415841 104.27185023 133.67578125 118.88671875 C135.13529466 137.0708203 127.53333215 150.64439914 115.984375 164.23828125 C115.22253906 165.11226562 114.46070313 165.98625 113.67578125 166.88671875 C112.61037109 168.13582031 112.61037109 168.13582031 111.5234375 169.41015625 C88.27545927 196.06335371 55.1533289 219.39515825 19.17578125 222.69921875 C-2.70541382 223.75508751 -20.9123396 214.33087884 -36.8671875 200.06640625 C-44.79462853 192.83225637 -52.23728949 185.34143391 -58.91796875 176.91796875 C-60.72536551 174.64111829 -62.55479615 172.39833595 -64.41796875 170.16796875 C-71.68210871 161.43857614 -78.31529087 152.52467091 -84.32421875 142.88671875 C-85.02160156 141.78199219 -85.71898438 140.67726562 -86.4375 139.5390625 C-103.7649648 110.77210637 -111.33825621 75.0643795 -103.18017578 42.10205078 C-99.90814406 30.10460114 -94.84300363 18.13008993 -86.32421875 8.88671875 C-85.66421875 8.88671875 -85.00421875 8.88671875 -84.32421875 8.88671875 C-84.32421875 8.22671875 -84.32421875 7.56671875 -84.32421875 6.88671875 C-61.00506685 -14.02529489 -24.85730697 -23.91072519 0 0 Z " fill="#FCFCFC" transform="translate(119.32421875,20.11328125)"/>
</svg>
