<?xml version="1.0" encoding="UTF-8"?>
<svg version="1.1" xmlns="http://www.w3.org/2000/svg" width="177" height="172">
<path d="M0 0 C4.33729795 2.25205855 7.13397371 4.4386024 9 9 C9.53204782 13.78843042 9.49783872 15.98517492 7.375 20.3125 C4.66496599 23.37911743 2.89316622 24.72723412 -1 26 C-5.78659166 26 -8.66993055 25.60652978 -12.4375 22.625 C-15.68252059 19.30083256 -15.95195878 17.74463892 -16.25 13.125 C-16.17946379 9.27372268 -15.52451423 7.02941708 -13 4 C-8.6514344 0.34325166 -5.66352208 -0.80907458 0 0 Z " fill="#F30A0B" transform="translate(114,52)"/>
<path d="M0 0 C4.33729795 2.25205855 7.13397371 4.4386024 9 9 C9.53204782 13.78843042 9.49783872 15.98517492 7.375 20.3125 C4.66496599 23.37911743 2.89316622 24.72723412 -1 26 C-5.29213444 26.20237962 -8.23180443 25.48429721 -11.875 23.1875 C-15.24675119 19.71657965 -15.90154889 18.01732817 -16.375 13.125 C-16.25402647 8.79414779 -14.84802823 6.30987065 -12 3 C-8.07324125 -0.18385844 -4.98824428 -0.6125914 0 0 Z " fill="#F30202" transform="translate(71,52)"/>
<path d="M0 0 C3.43615111 2.12017834 5.80717883 4.09622164 7 8 C7.47235231 12.88097387 7.52269768 15.02670088 5.1875 19.375 C1.87705524 23.34753371 -0.817762 24.51027873 -5.94140625 25.02734375 C-10.3799305 24.96838802 -13.14830652 22.73962855 -16.375 19.9375 C-18.75477223 15.63560405 -18.89963018 11.8057168 -18 7 C-14.00544169 -0.72070757 -7.8193051 -1.94086323 0 0 Z " fill="#F20A0B" transform="translate(159,53)"/>
<path d="M0 0 C4.14641194 2.07320597 6.25500922 3.75437512 8 8 C8.76806044 11.99539131 8.86098715 15.53605023 6.76171875 19.10546875 C4.28455359 22.08667248 2.73377045 23.75540985 -1 25 C-6.22596788 25.39441267 -9.59166842 24.90549127 -14 22 C-17.20339406 18.36948673 -17.5151924 14.89327208 -17.359375 10.21875 C-16.80079406 6.77011984 -15.23593827 4.61924197 -13 2 C-8.74347138 -0.83768574 -4.99717834 -0.63727624 0 0 Z " fill="#F30808" transform="translate(115,10)"/>
<path d="M0 0 C3.10701544 2.6501014 4.74879134 4.81106992 5.515625 8.890625 C5.86356769 13.54040464 5.28336089 16.20806628 2.25 19.8125 C0.01935726 22.14012721 -1.55819099 23.67797334 -4.86328125 24.015625 C-9.68993582 24.11296929 -13.03894014 24.08443341 -16.875 20.8125 C-20.02545989 17.11885737 -20.39484525 13.72772139 -20.23046875 9.03125 C-19.67197545 5.54526986 -18.17372629 3.43049384 -15.875 0.8125 C-10.9128946 -2.22509911 -5.30419983 -2.19086515 0 0 Z " fill="#F30202" transform="translate(117.875,96.1875)"/>
<path d="M0 0 C3.19366693 1.56644974 5.31756328 3.608879 6.9140625 6.86328125 C8.15613708 10.7167054 8.0626736 12.77879907 6.9375 16.75 C4.57884852 20.70644765 2.62519538 23.14888402 -1.85546875 24.6015625 C-5.63786033 25.34779836 -8.34883886 25.18763745 -11.8125 23.4375 C-15.21570745 21.14792794 -16.79450989 18.99318599 -18 15 C-18.18719954 10.3932635 -17.62129939 7.0069335 -15.1875 3.0625 C-10.37618679 -1.47388103 -6.23283632 -1.64192568 0 0 Z " fill="#F30303" transform="translate(30,53)"/>
<path d="M0 0 C4.09507797 2.08476697 6.2954921 3.76197354 8 8 C8.5822518 12.22699682 8.44569111 15.92095837 6.8125 19.875 C4.15714992 22.98816906 2.00461154 24.73393338 -2.1484375 25.28515625 C-6.88577152 25.46615074 -10.26398962 25.18659709 -14 22 C-16.89137611 18.51040814 -17.48171982 15.52169596 -17.28515625 10.9921875 C-16.67680797 6.74208311 -15.06283392 3.93779463 -11.875 1.125 C-7.83066162 -0.45756719 -4.28553904 -0.68659164 0 0 Z " fill="#F40102" transform="translate(72,95)"/>
<path d="M0 0 C3.23857278 1.30921027 4.60256422 2.52033613 6.8125 5.1875 C8.38296988 8.90703394 8.60577351 12.01804883 8 16 C6.50282018 19.20824247 4.72481464 21.72932114 2 24 C-2.53448658 25.51149553 -6.37741316 25.77441645 -10.75 23.6875 C-14.00599404 21.24550447 -15.69471469 19.91585593 -17 16 C-17.50154202 9.8811874 -17.07788705 6.89346446 -13 2 C-8.74178609 -0.83880927 -4.99661255 -0.51165313 0 0 Z " fill="#F30202" transform="translate(72,10)"/>
<path d="M0 0 C4.36413928 1.89387176 6.30319756 3.93374529 8.0625 8.25 C9.22466066 12.44899715 8.99445655 15.33406682 7.140625 19.26953125 C5.17386704 22.25334556 3.23533766 23.53494144 0 25 C-3.94115607 25.67231486 -7.14160358 25.40058499 -10.8125 23.6875 C-14.01258327 21.21886433 -15.70223538 19.89329386 -17 16 C-17.39544498 11.80828319 -17.26960901 9.51924698 -15.3125 5.75 C-10.95632769 0.56968698 -6.78076996 -1.14342395 0 0 Z " fill="#F40707" transform="translate(29,95)"/>
<path d="M0 0 C3.85852527 3.29109509 4.99871965 5.67597688 5.5625 10.75 C5.38494127 15.0275513 3.93513746 17.54666458 1.125 20.8125 C-2.33692259 23.69743549 -5.36001827 24.3473575 -9.87890625 24.16796875 C-13.22958518 23.5712725 -15.33123604 21.99286911 -17.875 19.8125 C-20.44264245 15.60930448 -20.55730714 11.61361245 -19.875 6.8125 C-15.70297273 -1.38255357 -8.43709194 -3.4848858 0 0 Z " fill="#F20A0A" transform="translate(160.875,11.1875)"/>
<path d="M0 0 C3.20008327 2.46863567 4.88973538 3.79420614 6.1875 7.6875 C6.96978195 14.39277386 6.96978195 14.39277386 4.953125 17.73046875 C2.46480458 20.7176851 0.93661429 22.43779524 -2.8125 23.6875 C-8.11835376 24.02981315 -11.55045828 24.21890599 -15.8125 20.6875 C-18.96295989 16.99385737 -19.33234525 13.60272139 -19.16796875 8.90625 C-18.4945363 4.70284744 -16.35182735 1.89697149 -13.0625 -0.6875 C-8.37652009 -1.98916109 -4.35882818 -2.03411982 0 0 Z " fill="#F3090A" transform="translate(159.8125,96.3125)"/>
<path d="M0 0 C3.16451887 2.57117158 5.72895651 4.77833205 6.23828125 8.953125 C6.41729051 14.4929906 5.8033356 17.66842335 2 22 C-2.21323048 24.5649583 -6.19081424 24.67511967 -11 24 C-14.49522239 22.28416355 -16.38570908 21.03312564 -18.375 17.6875 C-19.52189654 12.75584486 -19.67173313 9.34346626 -17.375 4.75 C-12.42754399 -0.97863328 -7.12108381 -2.19009392 0 0 Z " fill="#F50102" transform="translate(31,138)"/>
<path d="M0 0 C4.33729795 2.25205855 7.13397371 4.4386024 9 9 C9.54333853 13.89004676 9.52109104 15.99503871 7.25 20.375 C4.66434303 23.3915998 2.78439489 24.72098553 -1.1484375 25.3359375 C-6.5930041 25.43145621 -9.74878427 24.73277479 -14 21 C-16.37979031 17.97117597 -16.3657014 14.74929729 -16.24609375 10.95703125 C-15.69257128 6.5552097 -13.54577474 4.45894694 -10.25 1.6875 C-6.38396703 -0.31986327 -4.30179863 -0.61454266 0 0 Z " fill="#F11314" transform="translate(114,137)"/>
<path d="M0 0 C4.33729795 2.25205855 7.13397371 4.4386024 9 9 C9.54333853 13.89004676 9.52109104 15.99503871 7.25 20.375 C4.66434303 23.3915998 2.78439489 24.72098553 -1.1484375 25.3359375 C-6.5930041 25.43145621 -9.74878427 24.73277479 -14 21 C-16.34833356 18.01121183 -16.42117149 14.77793918 -16.31640625 11.02734375 C-15.62529227 6.5990949 -13.05734298 3.85730512 -9.6875 1.125 C-6.16108808 -0.35117243 -3.79611 -0.46618895 0 0 Z " fill="#F30203" transform="translate(71,137)"/>
<path d="M0 0 C3.43615111 2.12017834 5.80717883 4.09622164 7 8 C7.46846274 12.84078166 7.50094246 15.03389668 5.25 19.375 C2.66434303 22.3915998 0.78439489 23.72098553 -3.1484375 24.3359375 C-8.5930041 24.43145621 -11.74878427 23.73277479 -16 20 C-18.54411038 15.80660428 -18.82122965 11.78635867 -18 7 C-13.91722572 -0.69383361 -7.86889992 -1.95317337 0 0 Z " fill="#F30B0B" transform="translate(159,138)"/>
<path d="M0 0 C3.5959475 2.79684805 4.96830687 4.66346937 6.125 9.125 C6.30494526 14.34341257 4.60787037 17.17996239 1.25 21.0625 C-1.48154162 23.36723825 -3.52253979 23.72854149 -7.0625 24.0625 C-11.50886282 23.68568959 -13.38948122 22.65226622 -16.75 19.75 C-19.39201025 15.69891762 -20.45236884 12.5662435 -19.75 7.75 C-15.73537441 -0.12484251 -8.45489568 -3.8431344 0 0 Z " fill="#F30F0E" transform="translate(31.75,11.25)"/>
<path d="M0 0 C0.66 0.66 1.32 1.32 2 2 C-4.435 2.495 -4.435 2.495 -11 3 C-11.33 3.99 -11.66 4.98 -12 6 C-12.66 6 -13.32 6 -14 6 C-14.33 9.96 -14.66 13.92 -15 18 C-13.02 18.66 -11.04 19.32 -9 20 C-9 20.66 -9 21.32 -9 22 C-3.04049339 21.74032651 0.49382527 21.23307323 5 17 C5.66 17 6.32 17 7 17 C6.09126425 20.05665662 5.32469175 21.72305703 2.875 23.8125 C-0.87747743 25.36243633 -3.99406189 25.60942263 -8 25 C-11.20824247 23.50282018 -13.72932114 21.72481464 -16 19 C-17.20643566 15.38069302 -17.32268559 12.80768995 -17 9 C-12.93839839 1.17765616 -8.40356476 -0.68881678 0 0 Z " fill="#E64C4E" transform="translate(29,95)"/>
<path d="M0 0 C0.66 0 1.32 0 2 0 C2 0.99 2 1.98 2 3 C1.34 3.5775 0.68 4.155 0 4.75 C-2.33676993 6.93029646 -2.33676993 6.93029646 -2.3125 10.4375 C-2.05452623 13.37840097 -1.69454718 16.1349929 -1 19 C0.32 19 1.64 19 3 19 C3 19.66 3 20.32 3 21 C6.3 21 9.6 21 13 21 C13 19.35 13 17.7 13 16 C14.65 16.33 16.3 16.66 18 17 C16.97467587 19.97343996 16.00202083 20.99860466 13.375 22.8125 C9.2965417 24.24751311 6.06862199 24.34272614 2 23 C-1.45979784 20.92262679 -3.69404971 18.91785087 -5 15 C-5.34897334 9.59091325 -5.40316685 6.45029511 -2 2 C-1.34 1.34 -0.68 0.68 0 0 Z " fill="#E45455" transform="translate(103,54)"/>
<path d="M0 0 C0.5625 1.9375 0.5625 1.9375 1 4 C0.67 4.33 0.34 4.66 0 5 C-0.23820921 7.03270562 -0.23820921 7.03270562 -0.25 9.375 C-0.27578125 10.16648437 -0.3015625 10.95796875 -0.328125 11.7734375 C0.07307873 14.49589136 1.00204798 15.20184318 3 17 C3 17.66 3 18.32 3 19 C6.63 19 10.26 19 14 19 C14 18.01 14 17.02 14 16 C15.32 16.33 16.64 16.66 18 17 C17.1875 18.9375 17.1875 18.9375 16 21 C11.19135086 22.60288305 6.82928589 22.77236515 2.1875 20.8125 C-0.98565878 18.1833113 -2.73030673 16.03193562 -3.28515625 11.8515625 C-3.46840155 7.05531591 -3.03337588 3.91811052 0 0 Z " fill="#E54042" transform="translate(144,98)"/>
<path d="M0 0 C2.2475516 1.79804128 3.17679671 3.0854186 4.1875 5.75 C2.8675 5.75 1.5475 5.75 0.1875 5.75 C-0.1425 4.43 -0.4725 3.11 -0.8125 1.75 C-2.58324917 1.72294271 -4.35411711 1.70357805 -6.125 1.6875 C-7.11113281 1.67589844 -8.09726562 1.66429687 -9.11328125 1.65234375 C-11.91213849 1.62670138 -11.91213849 1.62670138 -14.8125 2.75 C-14.8125 3.41 -14.8125 4.07 -14.8125 4.75 C-15.4725 4.75 -16.1325 4.75 -16.8125 4.75 C-17.01839721 12.31407533 -17.01839721 12.31407533 -15.8125 19.75 C-18.47511483 17.47703612 -19.31288196 15.9045047 -19.75 12.4375 C-20.0252059 8.91142445 -19.79802936 7.71874341 -18.25 4.375 C-13.13378784 -1.13476694 -7.09758244 -3.15448108 0 0 Z " fill="#E14042" transform="translate(31.8125,11.25)"/>
<path d="M0 0 C2.35039822 1.10804487 3.96979564 2.3341913 6 4 C5.67 4.66 5.34 5.32 5 6 C3.68 5.34 2.36 4.68 1 4 C1 3.34 1 2.68 1 2 C-2.63 2 -6.26 2 -10 2 C-10.66 3.32 -11.32 4.64 -12 6 C-12.99 6.33 -13.98 6.66 -15 7 C-15 10.63 -15 14.26 -15 18 C-14.34 18 -13.68 18 -13 18 C-12.67 19.32 -12.34 20.64 -12 22 C-12.66 22 -13.32 22 -14 22 C-16.84065095 18.50381421 -17.48000513 15.48218343 -17.28515625 10.9921875 C-16.67680797 6.74208311 -15.06283392 3.93779463 -11.875 1.125 C-7.84316793 -0.45267342 -4.27247302 -0.71207884 0 0 Z " fill="#E86869" transform="translate(72,95)"/>
<path d="M0 0 C0.33 0.66 0.66 1.32 1 2 C0.67 2.66 0.34 3.32 0 4 C-0.401024 7.99481596 -0.48081421 11.71782877 0.9375 15.5 C5.18574574 18.58963326 10.93420807 18 16 18 C16 18.66 16 19.32 16 20 C12.52817697 21.73591152 8.79591036 21.46571673 5 21 C0.90589564 18.91572869 -1.29833099 17.23870281 -3 13 C-3.57291448 8.77382564 -3.67904173 5.16002963 -1.5 1.4375 C-0.7575 0.7259375 -0.7575 0.7259375 0 0 Z " fill="#E03635" transform="translate(144,141)"/>
<path d="M0 0 C0.66 0 1.32 0 2 0 C5.11961128 3.71953652 5.51931589 7.09990306 5.35546875 11.78125 C4.79697545 15.26723014 3.29872629 17.38200616 1 20 C-2.00918175 21.88073859 -4.22910316 22.22855579 -7.75 22.125 C-8.54921875 22.10695312 -9.3484375 22.08890625 -10.171875 22.0703125 C-10.77515625 22.04710937 -11.3784375 22.02390625 -12 22 C-12 21.67 -12 21.34 -12 21 C-11.36191406 20.87882812 -10.72382813 20.75765625 -10.06640625 20.6328125 C-9.24011719 20.46523437 -8.41382813 20.29765625 -7.5625 20.125 C-6.32693359 19.88136719 -6.32693359 19.88136719 -5.06640625 19.6328125 C-4.38449219 19.42398438 -3.70257813 19.21515625 -3 19 C-2.67 18.34 -2.34 17.68 -2 17 C-1.01 17 -0.02 17 1 17 C0.67 15.35 0.34 13.7 0 12 C0.66 12 1.32 12 2 12 C2 9.36 2 6.72 2 4 C1.34 3.67 0.68 3.34 0 3 C0 2.01 0 1.02 0 0 Z " fill="#E54E4E" transform="translate(32,140)"/>
<path d="M0 0 C3 1 3 1 4 3 C4.44894085 7.39444029 4.44840782 11.0012735 2.625 15.0625 C1.820625 16.0215625 1.820625 16.0215625 1 17 C0.34 17 -0.32 17 -1 17 C-2.1577506 13.52674819 -2.06866652 10.63932552 -2 7 C-1.01 6.67 -0.02 6.34 1 6 C0.67 4.02 0.34 2.04 0 0 Z " fill="#F02123" transform="translate(76,100)"/>
<path d="M0 0 C1.4552777 2.9105554 0.63516661 4.95849052 0.0625 8.125 C-0.13214844 9.22070312 -0.32679687 10.31640625 -0.52734375 11.4453125 C-0.68332031 12.28835937 -0.83929688 13.13140625 -1 14 C-0.01 14.33 0.98 14.66 2 15 C2 15.66 2 16.32 2 17 C5.16245541 18.0541518 7.86948218 18.31275672 11.1875 18.5625 C12.27417969 18.64628906 13.36085938 18.73007813 14.48046875 18.81640625 C15.31191406 18.87699219 16.14335937 18.93757813 17 19 C14.55400173 21.44599827 12.55122902 21.7511271 9.1640625 22.08984375 C5.40243304 21.93367502 2.802672 20.44032126 0 18 C-3.26378147 13.61429366 -3.19147145 10.23815961 -2.51953125 5.05078125 C-2 3 -2 3 0 0 Z " fill="#E0595B" transform="translate(15,56)"/>
<path d="M0 0 C0.66 0.33 1.32 0.66 2 1 C3.24217258 4.72651773 3.5341253 8.12942074 3 12 C0.90333729 16.0435638 -0.76584012 18.34315483 -5 20 C-7.359375 20.1953125 -7.359375 20.1953125 -9.75 20.125 C-10.54921875 20.10695312 -11.3484375 20.08890625 -12.171875 20.0703125 C-12.77515625 20.04710937 -13.3784375 20.02390625 -14 20 C-14 19.67 -14 19.34 -14 19 C-12.39125 18.9071875 -12.39125 18.9071875 -10.75 18.8125 C-6.29080891 17.84634193 -5.57593096 16.58790384 -3 13 C-2.01 13 -1.02 13 0 13 C0 8.71 0 4.42 0 0 Z " fill="#E64F51" transform="translate(77,142)"/>
<path d="M0 0 C3.0625 1.375 3.0625 1.375 5 3 C5 3.66 5 4.32 5 5 C3.68 4.67 2.36 4.34 1 4 C1 3.34 1 2.68 1 2 C-4.419554 2.42506306 -6.89524033 3.54336028 -11 7 C-13.8125 7.75 -13.8125 7.75 -16 8 C-15.10368306 4.98511576 -14.32087126 3.28197778 -11.9375 1.1875 C-7.8847813 -0.45083309 -4.31572638 -0.59311972 0 0 Z " fill="#E83535" transform="translate(115,95)"/>
<path d="M0 0 C0.66 0.33 1.32 0.66 2 1 C1.67 1.99 1.34 2.98 1 4 C0.34 4 -0.32 4 -1 4 C-0.690625 5.918125 -0.690625 5.918125 -0.375 7.875 C-0.0234375 10.0546875 -0.0234375 10.0546875 0 12 C-0.66 12.66 -1.32 13.32 -2 14 C-1.67801034 17.09926819 -1.67801034 17.09926819 -1 20 C-4.11989469 17.01575291 -4.94014492 15.718261 -5.3125 11.25 C-5.27802255 6.51797061 -3.34688742 3.34688742 0 0 Z " fill="#EF0405" transform="translate(60,54)"/>
<path d="M0 0 C2.41049138 1.08922007 3.95375076 2.27684275 6 4 C5 6 5 6 3 7 C2.67 6.34 2.34 5.68 2 5 C1.01 5 0.02 5 -1 5 C-1 4.34 -1 3.68 -1 3 C-6.30111943 2.42509588 -6.30111943 2.42509588 -10.8125 4.5 C-11.4003125 5.2425 -11.4003125 5.2425 -12 6 C-12.99 6 -13.98 6 -15 6 C-12.01412982 -0.89046964 -6.76800138 -0.90240018 0 0 Z " fill="#E45859" transform="translate(115,10)"/>
<path d="M0 0 C0.66 0.66 1.32 1.32 2 2 C-4.435 2.495 -4.435 2.495 -11 3 C-11.33 3.99 -11.66 4.98 -12 6 C-12.66 6 -13.32 6 -14 6 C-14.33 9.63 -14.66 13.26 -15 17 C-15.66 16.67 -16.32 16.34 -17 16 C-17.45647158 10.29410528 -16.69917584 7.39901992 -13 3 C-8.76860056 -0.5261662 -5.29055539 -0.43365208 0 0 Z " fill="#E25658" transform="translate(29,95)"/>
<path d="M0 0 C3.90909091 3.90909091 3.90909091 3.90909091 4.3125 8.75 C4.2646358 13.12957399 2.86573953 15.64299084 0 19 C-0.99 19.33 -1.98 19.66 -3 20 C-3 18.68 -3 17.36 -3 16 C-1.68 16 -0.36 16 1 16 C0.67 10.72 0.34 5.44 0 0 Z " fill="#E5585A" transform="translate(162,56)"/>
<path d="M0 0 C0.5625 1.9375 0.5625 1.9375 1 4 C0.67 4.33 0.34 4.66 0 5 C-0.23820921 7.03270562 -0.23820921 7.03270562 -0.25 9.375 C-0.27578125 10.16648437 -0.3015625 10.95796875 -0.328125 11.7734375 C0.07486481 14.50801121 1.03809187 15.15167603 3 17 C3 17.99 3 18.98 3 20 C0 19 0 19 -1.6875 17 C-3.4694632 12.92694126 -3.61848615 9.38490821 -3 5 C-1.5 1.9375 -1.5 1.9375 0 0 Z " fill="#E55758" transform="translate(144,98)"/>
<path d="M0 0 C1.32 0.33 2.64 0.66 4 1 C0.375 5.875 0.375 5.875 -3 7 C-8.03415457 7.37290034 -10.89042374 6.98878273 -15 4 C-10.33333333 4 -5.66666667 4 -1 4 C-0.67 2.68 -0.34 1.36 0 0 Z " fill="#E66C6B" transform="translate(74,28)"/>
<path d="M0 0 C0.66 0.33 1.32 0.66 2 1 C2 1.66 2 2.32 2 3 C2.66 3.33 3.32 3.66 4 4 C1.33187801 6.7841273 -0.83959075 7.26585934 -4.5625 7.375 C-6.87890625 7.3984375 -6.87890625 7.3984375 -9 7 C-9.99 6.01 -10.98 5.02 -12 4 C-8.37 4.33 -4.74 4.66 -1 5 C-1.33 4.01 -1.66 3.02 -2 2 C-1.34 1.34 -0.68 0.68 0 0 Z " fill="#EB4D4E" transform="translate(115,113)"/>
<path d="M0 0 C0.85464844 -0.00515625 1.70929688 -0.0103125 2.58984375 -0.015625 C5.18224567 0.26286367 6.82764234 0.94330828 9.0625 2.25 C8.4025 2.91 7.7425 3.57 7.0625 4.25 C7.0625 3.59 7.0625 2.93 7.0625 2.25 C0.6275 2.745 0.6275 2.745 -5.9375 3.25 C-5.9375 3.91 -5.9375 4.57 -5.9375 5.25 C-7.2575 5.58 -8.5775 5.91 -9.9375 6.25 C-7.78764084 1.28878655 -5.32538109 -0.03203237 0 0 Z " fill="#E66163" transform="translate(66.9375,9.75)"/>
<path d="M0 0 C0.33 0.99 0.66 1.98 1 3 C0.67 3.66 0.34 4.32 0 5 C-0.22467831 6.53668865 -0.40796805 8.07968054 -0.5625 9.625 C-0.64628906 10.44226563 -0.73007812 11.25953125 -0.81640625 12.1015625 C-0.87699219 12.72804687 -0.93757813 13.35453125 -1 14 C-0.34 14 0.32 14 1 14 C1.66 15.65 2.32 17.3 3 19 C0.71216703 18.08486681 -0.73449728 17.34515354 -2.25 15.375 C-3.78205011 10.523508 -3.73877929 6.47755859 -1.5 2 C-1.005 1.34 -0.51 0.68 0 0 Z " fill="#E3605D" transform="translate(58,141)"/>
<path d="M0 0 C1.17369141 0.10054687 1.17369141 0.10054687 2.37109375 0.203125 C4.92212232 0.83974532 5.89857581 1.75971125 7.5625 3.75 C1.89583333 3.75 -3.77083333 3.75 -9.4375 3.75 C-6.2475914 0.41509556 -4.62860152 -0.45601985 0 0 Z " fill="#E05C5C" transform="translate(154.4375,52.25)"/>
<path d="M0 0 C0.33 1.32 0.66 2.64 1 4 C0.34 4 -0.32 4 -1 4 C-1 7.63 -1 11.26 -1 15 C-0.34 15 0.32 15 1 15 C1.33 16.32 1.66 17.64 2 19 C-1 18 -1 18 -2.16796875 16.21484375 C-3.56224502 12.50331958 -3.47949925 8.90548665 -3 5 C-1.5 1.9375 -1.5 1.9375 0 0 Z " fill="#E36160" transform="translate(144,13)"/>
<path d="M0 0 C1.4552777 2.9105554 0.63516661 4.95849052 0.0625 8.125 C-0.13214844 9.22070312 -0.32679687 10.31640625 -0.52734375 11.4453125 C-0.68332031 12.28835937 -0.83929688 13.13140625 -1 14 C-0.01 14.33 0.98 14.66 2 15 C2.6875 17.0625 2.6875 17.0625 3 19 C0.30399627 18.0114653 -0.80558649 17.34022364 -2.25 14.8125 C-3.50736993 10.09736276 -3.74854326 6.46589721 -1.5 2.0625 C-1.005 1.381875 -0.51 0.70125 0 0 Z " fill="#E46467" transform="translate(15,141)"/>
<path d="M0 0 C4.95 0 9.9 0 15 0 C12 3 12 3 9.84375 3.3984375 C8.68359375 3.38683594 8.68359375 3.38683594 7.5 3.375 C6.7265625 3.38273437 5.953125 3.39046875 5.15625 3.3984375 C3 3 3 3 0 0 Z " fill="#E55253" transform="translate(60,117)"/>
<path d="M0 0 C3.875 2.625 3.875 2.625 5 6 C5.203125 7.9375 5.203125 7.9375 5.25 10 C5.27578125 10.680625 5.3015625 11.36125 5.328125 12.0625 C5 14 5 14 2 17 C2 13.04 2 9.08 2 5 C1.01 4.67 0.02 4.34 -1 4 C-0.67 2.68 -0.34 1.36 0 0 Z " fill="#E65C5C" transform="translate(161,98)"/>
<path d="M0 0 C1.98193582 1.64547987 2.90980116 2.55875703 3.43359375 5.12109375 C3.44423411 11.43082505 3.44423411 11.43082505 1 14.5625 C0.01 15.2740625 0.01 15.2740625 -1 16 C-1 14.68 -1 13.36 -1 12 C-0.34 12 0.32 12 1 12 C0.835 11.505 0.67 11.01 0.5 10.5 C-0.20688818 6.96555911 -0.06005155 3.60309299 0 0 Z " fill="#E65656" transform="translate(120,100)"/>
<path d="M0 0 C2.55893347 2.14620227 3.87166015 3.61498044 4.9375 6.8125 C5.01916901 10.97761938 3.85289791 13.29420417 2 17 C0.64984141 12.94952424 1.37915002 10.2079832 2 6 C1.34 5.67 0.68 5.34 0 5 C0 3.35 0 1.7 0 0 Z " fill="#E7696A" transform="translate(33,56)"/>
<path d="M0 0 C1.98 0.99 1.98 0.99 4 2 C4 2.66 4 3.32 4 4 C9.94 5.485 9.94 5.485 16 7 C16 7.33 16 7.66 16 8 C11.20584946 8.38353204 7.87988115 8.43994058 3.5 6.25 C1.06193835 4.05574452 0.22930057 3.21020798 0 0 Z " fill="#E44A4B" transform="translate(99,154)"/>
<path d="M0 0 C0.33 0.66 0.66 1.32 1 2 C0.67 2.66 0.34 3.32 0 4 C-0.31658385 8.73944653 -0.19110347 13.38447404 1 18 C-2.86963788 14.29860724 -2.86963788 14.29860724 -3.203125 10.9765625 C-3.33092369 4.56532798 -3.33092369 4.56532798 -1.5 1.4375 C-0.7575 0.7259375 -0.7575 0.7259375 0 0 Z " fill="#E35958" transform="translate(144,141)"/>
<path d="M0 0 C1.7734375 1.5546875 1.7734375 1.5546875 3 3 C2.24074219 2.90460937 1.48148438 2.80921875 0.69921875 2.7109375 C-0.79158203 2.54464844 -0.79158203 2.54464844 -2.3125 2.375 C-3.79169922 2.20097656 -3.79169922 2.20097656 -5.30078125 2.0234375 C-8.22657416 1.74523005 -8.22657416 1.74523005 -11 4 C-11.99 3.34 -12.98 2.68 -14 2 C-9.55282775 -1.58642924 -5.31687928 -1.57315904 0 0 Z " fill="#E26564" transform="translate(30,53)"/>
<path d="M0 0 C1.2065625 0.0309375 1.2065625 0.0309375 2.4375 0.0625 C-1.15345248 3.8166776 -3.32457089 4.19379237 -8.58984375 4.390625 C-11.09729815 3.97354348 -11.95788295 2.97395604 -13.5625 1.0625 C-12.85222656 1.07410156 -12.14195312 1.08570313 -11.41015625 1.09765625 C-10.49105469 1.10667969 -9.57195312 1.11570313 -8.625 1.125 C-7.25021484 1.14240234 -7.25021484 1.14240234 -5.84765625 1.16015625 C-3.00788287 1.03879841 -2.9400358 0.07170819 0 0 Z " fill="#E56260" transform="translate(159.5625,30.9375)"/>
<path d="M0 0 C3 1 3 1 4 3 C4.06950541 4.54023996 4.08452357 6.08334988 4.0625 7.625 C4.05347656 8.44226563 4.04445313 9.25953125 4.03515625 10.1015625 C4.02355469 10.72804688 4.01195313 11.35453125 4 12 C3.01 12 2.02 12 1 12 C0.67 8.04 0.34 4.08 0 0 Z " fill="#E33D3E" transform="translate(76,100)"/>
<path d="M0 0 C3 2 3 2 4 5 C4.23188622 7.72331488 4.13093368 10.25039269 4 13 C3.34 13.66 2.68 14.32 2 15 C1.8046875 12.94921875 1.609375 10.8984375 1.4140625 8.84765625 C1.20910156 7.93306641 1.20910156 7.93306641 1 7 C0.34 6.67 -0.32 6.34 -1 6 C-1 5.34 -1 4.68 -1 4 C-0.34 4 0.32 4 1 4 C0.67 2.68 0.34 1.36 0 0 Z " fill="#E64D4D" transform="translate(76,56)"/>
<path d="M0 0 C3.7541776 3.59095248 4.13129237 5.76207089 4.328125 11.02734375 C3.91104348 13.53479815 2.91145604 14.39538295 1 16 C1.01740234 15.02160156 1.01740234 15.02160156 1.03515625 14.0234375 C1.08470994 9.2238086 0.99413751 4.72215315 0 0 Z " fill="#E15F5C" transform="translate(162,141)"/>
<path d="M0 0 C0.79664063 0.07863281 1.59328125 0.15726563 2.4140625 0.23828125 C3.06117187 0.38652344 3.70828125 0.53476563 4.375 0.6875 C4.705 1.3475 5.035 2.0075 5.375 2.6875 C4.385 3.0175 3.395 3.3475 2.375 3.6875 C2.045 3.3575 1.715 3.0275 1.375 2.6875 C-2.78964926 2.52732118 -6.57226192 2.70501804 -10.625 3.6875 C-7.33754259 0.0869514 -4.77700736 -0.52126953 0 0 Z " fill="#E66063" transform="translate(26.625,137.3125)"/>
<path d="M0 0 C3.98111099 0.08347491 6.55325893 0.68378168 9.6875 3.3125 C9.6875 3.9725 9.6875 4.6325 9.6875 5.3125 C8.3675 4.9825 7.0475 4.6525 5.6875 4.3125 C5.6875 3.6525 5.6875 2.9925 5.6875 2.3125 C1.7275 2.3125 -2.2325 2.3125 -6.3125 2.3125 C-3.9183839 -0.0816161 -3.27463689 0.01651077 0 0 Z " fill="#E56C6E" transform="translate(110.3125,94.6875)"/>
<path d="M0 0 C6.40141012 -0.51211281 9.98010898 -0.11888494 15 4 C14.67 4.66 14.34 5.32 14 6 C12.68 5.34 11.36 4.68 10 4 C10 3.34 10 2.68 10 2 C6.7 2 3.4 2 0 2 C0 1.34 0 0.68 0 0 Z " fill="#E56B6E" transform="translate(63,95)"/>
<path d="M0 0 C5.28 0.33 10.56 0.66 16 1 C13.53307216 3.46692784 11.50967443 3.67457944 8.109375 4.046875 C4.91016098 3.97578136 2.66660386 2.66662741 0 1 C0 0.67 0 0.34 0 0 Z " fill="#E47775" transform="translate(59,74)"/>
<path d="M0 0 C2.39286884 2.39286884 2.32050616 3.09447094 2.375 6.375 C2.31898675 9.85342253 2.21688729 10.72211316 0 13.5625 C-0.99 14.2740625 -0.99 14.2740625 -2 15 C-2 13.68 -2 12.36 -2 11 C-1.34 11 -0.68 11 0 11 C0 7.37 0 3.74 0 0 Z " fill="#E7676B" transform="translate(121,16)"/>
<path d="M0 0 C3.2226385 3.08252378 3.96592066 4.28433396 4.1875 8.9375 C4.25765634 12.34964921 4.0252732 12.9620902 2 16 C1.93941406 15.26394531 1.87882812 14.52789062 1.81640625 13.76953125 C1.73261719 12.79371094 1.64882812 11.81789063 1.5625 10.8125 C1.48128906 9.84957031 1.40007812 8.88664062 1.31640625 7.89453125 C1.02333849 5.21350398 0.57296246 2.6337014 0 0 Z " fill="#E45D61" transform="translate(76,13)"/>
<path d="M0 0 C0.33 0 0.66 0 1 0 C1.29296875 6.0546875 1.29296875 6.0546875 1 8 C0.01 8.66 -0.98 9.32 -2 10 C-2 8.68 -2 7.36 -2 6 C-2.66 5.67 -3.32 5.34 -4 5 C-2.69254251 3.31295807 -1.35827971 1.64639965 0 0 Z " fill="#EE2126" transform="translate(77,65)"/>
<path d="M0 0 C9.76374745 -0.57433809 9.76374745 -0.57433809 14 3 C14.33 3.99 14.66 4.98 15 6 C14.34 6 13.68 6 13 6 C12.67 5.34 12.34 4.68 12 4 C9.19521805 3.08514427 9.19521805 3.08514427 5.9375 2.375 C4.83277344 2.11460938 3.72804687 1.85421875 2.58984375 1.5859375 C1.30787109 1.29589844 1.30787109 1.29589844 0 1 C0 0.67 0 0.34 0 0 Z " fill="#E65856" transform="translate(149,10)"/>
<path d="M0 0 C1.32 0 2.64 0 4 0 C4 0.99 4 1.98 4 3 C0.93753253 4.78409802 -1.22079273 5.22880021 -4.75 5.125 C-5.54921875 5.10695312 -6.3484375 5.08890625 -7.171875 5.0703125 C-7.77515625 5.04710937 -8.3784375 5.02390625 -9 5 C-9 4.67 -9 4.34 -9 4 C-7.88625 3.896875 -6.7725 3.79375 -5.625 3.6875 C-4.42875 3.460625 -3.2325 3.23375 -2 3 C-1.34 2.01 -0.68 1.02 0 0 Z " fill="#E73E3F" transform="translate(72,157)"/>
<path d="M0 0 C0.66 0.66 1.32 1.32 2 2 C-0.94369145 3.47184573 -3.73383414 3 -7 3 C-8.67557379 3.28520405 -10.34817245 3.59955696 -12 4 C-8.12207036 -0.05419917 -5.66296543 -0.30337315 0 0 Z " fill="#E66365" transform="translate(71,137)"/>
<path d="M0 0 C3 2 3 2 4 5 C4.12781786 7.67394964 4.04391871 10.32095857 4 13 C3.34 13 2.68 13 2 13 C1.855625 11.783125 1.71125 10.56625 1.5625 9.3125 C1.17219047 6.17329623 0.67648144 3.0924866 0 0 Z " fill="#E35E61" transform="translate(119,56)"/>
<path d="M0 0 C0.33 0 0.66 0 1 0 C1 3.96 1 7.92 1 12 C1.99 12.33 2.98 12.66 4 13 C3.34 13.66 2.68 14.32 2 15 C-1.36699949 10.51066735 -1.35512837 7.4157076 -1 2 C-0.67 1.34 -0.34 0.68 0 0 Z " fill="#E46568" transform="translate(56,16)"/>
<path d="M0 0 C0.33 0 0.66 0 1 0 C1.33 1.65 1.66 3.3 2 5 C2.33 5 2.66 5 3 5 C3.66 7.97 4.32 10.94 5 14 C4.34 14 3.68 14 3 14 C-0.66641647 9.62850344 -0.31749488 5.39741292 0 0 Z " fill="#EB6463" transform="translate(98,103)"/>
<path d="M0 0 C3.82116982 0.32382795 5.62930359 1.08835716 8.6875 3.3125 C5.7769446 4.7677777 3.72900948 3.94766661 0.5625 3.375 C-0.53320312 3.18035156 -1.62890625 2.98570313 -2.7578125 2.78515625 C-3.60085937 2.62917969 -4.44390625 2.47320312 -5.3125 2.3125 C-3.3125 0.3125 -3.3125 0.3125 0 0 Z " fill="#E27573" transform="translate(67.3125,51.6875)"/>
<path d="M0 0 C0.33 0 0.66 0 1 0 C1 1.98 1 3.96 1 6 C0.01 6.495 0.01 6.495 -1 7 C-1.40729228 9.32156597 -1.74438677 11.6568787 -2 14 C-2.33 14 -2.66 14 -3 14 C-3.08153933 12.41753293 -3.13943557 10.83383727 -3.1875 9.25 C-3.22230469 8.36828125 -3.25710937 7.4865625 -3.29296875 6.578125 C-2.94779578 3.54060287 -2.05721814 2.21785733 0 0 Z " fill="#E86361" transform="translate(144,56)"/>
<path d="M0 0 C2.97 0.495 2.97 0.495 6 1 C6 1.66 6 2.32 6 3 C8.31 3.33 10.62 3.66 13 4 C13 4.33 13 4.66 13 5 C7.73946963 5.31563182 4.55426184 4.66590937 0 2 C0 1.34 0 0.68 0 0 Z " fill="#ED726F" transform="translate(101,30)"/>
<path d="M0 0 C2.31 0.33 4.62 0.66 7 1 C6.01 2.485 6.01 2.485 5 4 C1.375 4.1875 1.375 4.1875 -2 4 C-1.34 2.68 -0.68 1.36 0 0 Z " fill="#E62F2E" transform="translate(112,30)"/>
<path d="M0 0 C1.9375 0.8125 1.9375 0.8125 4 2 C5.1577506 5.47325181 5.06866652 8.36067448 5 12 C4.67 12 4.34 12 4 12 C4 10.02 4 8.04 4 6 C3.34 6 2.68 6 2 6 C1.34 4.02 0.68 2.04 0 0 Z " fill="#E32123" transform="translate(73,139)"/>
<path d="M0 0 C2.52480693 2.52480693 2.55738633 4.13823034 3.125 7.625 C3.29257812 8.62789062 3.46015625 9.63078125 3.6328125 10.6640625 C3.75398438 11.43492188 3.87515625 12.20578125 4 13 C0.06190389 9.23312546 0.06190389 9.23312546 -0.09765625 6.0546875 C-0.06510417 4.03645833 -0.03255208 2.01822917 0 0 Z " fill="#EA6D6C" transform="translate(55,61)"/>
<path d="M0 0 C0.66 0 1.32 0 2 0 C2.144375 1.051875 2.28875 2.10375 2.4375 3.1875 C2.87526966 6.15460549 3.37804866 9.06794366 4 12 C1.95780294 10.30820672 1.08206694 9.36272334 0.48828125 6.73828125 C0.43027344 5.93777344 0.37226563 5.13726562 0.3125 4.3125 C0.24675781 3.50425781 0.18101563 2.69601563 0.11328125 1.86328125 C0.07589844 1.24839844 0.03851563 0.63351563 0 0 Z " fill="#E2565A" transform="translate(12,19)"/>
<path d="M0 0 C-0.66 1.32 -1.32 2.64 -2 4 C-4.31 3.67 -6.62 3.34 -9 3 C-9 2.34 -9 1.68 -9 1 C-5.8035914 -0.06546953 -3.34252724 -0.07427838 0 0 Z " fill="#F10202" transform="translate(27,97)"/>
<path d="M0 0 C0.33 0.66 0.66 1.32 1 2 C-0.375 4 -0.375 4 -2 6 C-2.66 6 -3.32 6 -4 6 C-4.33 4.35 -4.66 2.7 -5 1 C-3.35 0.67 -1.7 0.34 0 0 Z " fill="#EA4B4C" transform="translate(121,154)"/>
<path d="M0 0 C1.65 0 3.3 0 5 0 C5.66 1.32 6.32 2.64 7 4 C6.01 4.33 5.02 4.66 4 5 C3.67 4.34 3.34 3.68 3 3 C2.01 3 1.02 3 0 3 C0 2.01 0 1.02 0 0 Z " fill="#EB3838" transform="translate(114,12)"/>
<path d="M0 0 C3.3 0.99 6.6 1.98 10 3 C10 3.33 10 3.66 10 4 C7.03 4 4.06 4 1 4 C0.67 2.68 0.34 1.36 0 0 Z " fill="#E01716" transform="translate(17,157)"/>
<path d="M0 0 C1.32 0.33 2.64 0.66 4 1 C2.68 2.65 1.36 4.3 0 6 C-0.66 5.67 -1.32 5.34 -2 5 C-1.34 3.35 -0.68 1.7 0 0 Z " fill="#EA3D40" transform="translate(74,28)"/>
<path d="M0 0 C1.9375 0.75 1.9375 0.75 4 2 C4.75 4.125 4.75 4.125 5 6 C4.01 6 3.02 6 2 6 C0 3 0 3 0 0 Z " fill="#E55254" transform="translate(31,97)"/>
<path d="M0 0 C0.66 0.33 1.32 0.66 2 1 C-1.625 5.875 -1.625 5.875 -5 7 C-3.75023244 3.34683329 -3.32901247 2.21934164 0 0 Z " fill="#E5585C" transform="translate(61,96)"/>
<path d="M0 0 C0.66 0.33 1.32 0.66 2 1 C1.67 1.99 1.34 2.98 1 4 C0.34 4 -0.32 4 -1 4 C-1 4.66 -1 5.32 -1 6 C-1.99 6.33 -2.98 6.66 -4 7 C-2.92598892 4.08482708 -2.22189824 2.22189824 0 0 Z " fill="#E35157" transform="translate(60,54)"/>
<path d="M0 0 C1.32 0.33 2.64 0.66 4 1 C2.25 4.875 2.25 4.875 0 6 C0 4.02 0 2.04 0 0 Z " fill="#E83438" transform="translate(32,26)"/>
</svg>
