<?xml version="1.0" encoding="UTF-8"?>
<svg version="1.1" xmlns="http://www.w3.org/2000/svg" width="182" height="183">
<path d="M0 0 C2.3565565 1.94415911 3.64918923 3.29837846 5 6 C5.38893819 10.66725826 5.45147837 13.07967871 3.375 17.3125 C0.66496599 20.37911743 -1.10683378 21.72723412 -5 23 C-9.08898447 23.19280084 -12.17515826 22.42158578 -15.8125 20.5625 C-19.02512342 16.79914113 -20.21797348 12.85014429 -21 8 C-20.57499637 4.8124728 -19.81081053 3.69583006 -17.40234375 1.62890625 C-10.96894886 -3.19272517 -7.30207624 -3.24830154 0 0 Z " fill="#E8E8E8" transform="translate(35,19)"/>
<path d="M0 0 C3.85852527 3.29109509 4.99871965 5.67597688 5.5625 10.75 C5.37626393 15.04152681 3.99485359 17.5650341 1.125 20.8125 C-2.29484276 23.22193467 -4.82635056 24.05969111 -8.9375 23.75 C-13.57209677 22.93473632 -16.42719958 20.81184344 -19.1875 17 C-20.58291913 12.56003003 -20.27153013 8.89774036 -18.6875 4.5625 C-14.27864469 -2.12679771 -7.13030685 -2.94512674 0 0 Z " fill="#EBEBEB" transform="translate(77.875,18.1875)"/>
<path d="M0 0 C3.9396246 2.39803236 5.829361 4.53028746 7 9 C7.50522392 12.95758736 7.18992188 14.65407087 5.25 18.1875 C0.79426644 23.75716695 0.79426644 23.75716695 -3.078125 24.28125 C-7.83676607 24.47033508 -11.24767868 24.20050936 -15 21 C-17.86667766 17.54021662 -18.54304397 14.49460018 -18.34765625 9.9921875 C-17.53464835 5.33337819 -14.99482897 2.70090223 -11.25 0.0625 C-7.14087256 -1.28086858 -4.12510667 -1.25029006 0 0 Z " fill="#ECECEC" transform="translate(162,145)"/>
<path d="M0 0 C3.40654184 2.14760246 5.77828524 4.11272577 7 8 C7.45599783 13.01597611 7.12987123 16.00671602 4 20 C1.76626666 22.43082746 0.15337617 23.81126572 -3.1484375 24.3515625 C-7.84371509 24.52315072 -11.35424002 24.21684704 -15 21 C-17.88402967 16.62423085 -18.64987517 13.19900136 -18 8 C-16.17774814 4.35549628 -14.57798075 2.40721371 -11.25 0.0625 C-7.14576215 -1.27927006 -4.11993277 -1.2572166 0 0 Z " fill="#ECECEC" transform="translate(119,145)"/>
<path d="M0 0 C3.40654184 2.14760246 5.77828524 4.11272577 7 8 C7.48290996 13.21542759 6.89584879 16.60629839 4 21 C0.43756869 24.14332174 -3.09679535 24.63107472 -7.7109375 24.4921875 C-11.72326905 23.62946775 -14.44515635 21.12512125 -17 18 C-18.20643566 14.38069302 -18.32268559 11.80768995 -18 8 C-16.17774814 4.35549628 -14.57798075 2.40721371 -11.25 0.0625 C-7.14576215 -1.27927006 -4.11993277 -1.2572166 0 0 Z " fill="#ECECEC" transform="translate(76,145)"/>
<path d="M0 0 C3.40569591 2.14706916 5.80960782 4.10417103 7 8 C7.46846274 12.84078166 7.50094246 15.03389668 5.25 19.375 C2.66111425 22.39536671 0.77129709 23.69404868 -3.1484375 24.37109375 C-7.28770068 24.49454546 -10.12211901 24.39741725 -13.4375 21.75 C-16.1443526 18.84508501 -17.90116967 16.84153851 -18.1171875 12.81640625 C-17.57643174 7.78388893 -16.88995468 4.56579179 -13 1 C-8.7619166 -1.58993986 -4.65218395 -1.30901532 0 0 Z " fill="#ECECEC" transform="translate(33,145)"/>
<path d="M0 0 C3.8430202 2.05178197 6.40171461 4.95551255 8 9 C8.23974502 13.46724889 7.53895094 17.09533235 5.25 20.9375 C1.9767995 23.93793379 -0.56882422 24.81729671 -4.9375 25.375 C-9.82725065 24.77625502 -12.76569144 22.48117027 -15.875 18.75 C-17.38684912 15.05436881 -17.58321819 11.93872009 -17 8 C-13.85637749 0.55457826 -7.5818007 -1.44160999 0 0 Z " fill="#ECECEC" transform="translate(161,17)"/>
<path d="M0 0 C2.81485619 2.48369664 3.93119986 4.29359959 5.125 7.875 C5.32648794 12.44474638 4.72462755 15.86848233 2.375 19.8125 C-0.58100937 22.52217526 -2.71713061 23.83991269 -6.796875 23.90625 C-11.58415733 23.54630396 -14.44187458 22.4090997 -17.875 18.875 C-20.39970277 15.38850569 -20.23726929 12.07732375 -19.875 7.875 C-18.61744162 4.43326126 -17.49580644 2.42277039 -14.75 0 C-9.75039828 -1.95636589 -4.99960172 -1.95636589 0 0 Z " fill="#ECECEC" transform="translate(120.875,18.125)"/>
<path d="M0 0 C4.87070677 2.43535338 7.15569877 4.87694102 9 10 C9.57655769 13.95353844 9.19506815 15.63153793 7.3125 19.1875 C3.99752342 23.21922828 1.77118784 24.77457609 -3.4375 25.4375 C-8.47642274 24.81868493 -11.23445908 22.6478382 -14.875 19.25 C-16.55875435 15.88249129 -16.54485282 12.64688157 -16 9 C-14.50282018 5.79175753 -12.72481464 3.27067886 -10 1 C-6.38069302 -0.20643566 -3.80768995 -0.32268559 0 0 Z " fill="#ECECEC" transform="translate(160,102)"/>
<path d="M0 0 C4.54633071 1.90311518 6.74665796 4.66023014 9 9 C9.61454266 13.30179863 9.31986327 15.38396703 7.3125 19.25 C3.97439585 23.21963737 1.74207896 24.77828086 -3.4375 25.4375 C-8.65512075 24.79673956 -11.59245374 22.73597372 -14.875 18.6875 C-16.35117243 15.16108808 -16.46618895 12.79611 -16 9 C-12.28890163 1.85269944 -8.07469431 -0.86514582 0 0 Z " fill="#ECECEC" transform="translate(117,102)"/>
<path d="M0 0 C3.47065399 3.47065399 4.90575431 5.86905171 5.3125 10.75 C5.25654643 15.14635228 3.88670044 17.63218282 1 21 C-3.21322867 23.588 -7.18808556 23.54230878 -12 23 C-15.4794963 21.63845797 -16.70766749 20.40926552 -18.875 17.375 C-20.34954838 12.95135487 -20.35137753 9.46613794 -19 5 C-13.65466738 -1.9786287 -7.98166939 -3.20758677 0 0 Z " fill="#EFEFEF" transform="translate(35,61)"/>
<path d="M0 0 C3.25599404 2.44199553 4.94471469 3.77164407 6.25 7.6875 C6.62038573 12.68770732 6.45042937 15.74030378 3.25 19.6875 C0.01200632 22.41035832 -2.04638867 23.5869841 -6.25 24.1875 C-11.39539319 23.45244383 -14.28116346 21.34586383 -17.6875 17.5 C-19.24386332 13.38021475 -18.88317978 9.9062977 -17.75 5.6875 C-13.60518859 -1.02995297 -7.49760334 -3.57840159 0 0 Z " fill="#ECECEC" transform="translate(33.75,103.3125)"/>
<path d="M0 0 C2.8906127 1.79860345 4.56831648 3.31323077 6.375 6.1875 C7.30118795 10.3553458 7.32631144 13.91352692 6 18 C3.59638187 21.49487502 0.89990865 23.61094021 -3.2890625 24.46875 C-7.90083814 24.65383799 -11.44284711 24.13866432 -15 21 C-17.88402967 16.62423085 -18.64987517 13.19900136 -18 8 C-16.0688665 3.98324232 -14.54365552 2.31798719 -10.6875 0.0625 C-6.51071315 -1.14098096 -4.17566881 -1.159908 0 0 Z " fill="#EDEDED" transform="translate(119,60)"/>
<path d="M0 0 C3.37617753 2.17575885 5.78034129 4.11926774 7 8 C7.68482879 14.049321 6.40910735 17.17043126 3 22 C-1.16029806 24.63398326 -5.22308966 24.53836378 -10 24 C-13.4794963 22.63845797 -14.70766749 21.40926552 -16.875 18.375 C-18.34954838 13.95135487 -18.35137753 10.46613794 -17 6 C-12.23181247 -0.22513372 -7.5800655 -1.89501637 0 0 Z " fill="#F0F0F0" transform="translate(76,60)"/>
<path d="M0 0 C4.54633071 1.90311518 6.74665796 4.66023014 9 9 C9.61454266 13.30179863 9.31986327 15.38396703 7.3125 19.25 C3.97439585 23.21963737 1.74207896 24.77828086 -3.4375 25.4375 C-8.65512075 24.79673956 -11.59245374 22.73597372 -14.875 18.6875 C-16.35117243 15.16108808 -16.46618895 12.79611 -16 9 C-12.28890163 1.85269944 -8.07469431 -0.86514582 0 0 Z " fill="#EDEDED" transform="translate(74,102)"/>
<path d="M0 0 C4.2366493 3.4834672 6.66549954 6.43549644 7.375 11.875 C6.80558393 16.62013395 4.44116002 19.39871108 1.3125 22.875 C-2.4040597 24.68305607 -5.95512709 24.63792623 -10 24 C-13.15689734 22.39285226 -15.19415756 21.02561766 -17.375 18.25 C-18.79173621 13.14974966 -18.65773139 9.39439055 -16.4375 4.6875 C-11.71339297 -0.52113083 -6.74342891 -1.99805301 0 0 Z " fill="#EEEEEE" transform="translate(162,60)"/>
<path d="M0 0 C0.5775 0.226875 1.155 0.45375 1.75 0.6875 C0.6671875 1.30625 0.6671875 1.30625 -0.4375 1.9375 C-3.22969862 3.67486803 -5.72012585 5.59131857 -8.25 7.6875 C-6.86345583 3.41232214 -5.12511737 -0.71182186 0 0 Z " fill="#ABABAB" transform="translate(24.25,60.3125)"/>
<path d="M0 0 C0.66 0.33 1.32 0.66 2 1 C1.04882866 2.1725131 0.08882991 3.33787015 -0.875 4.5 C-1.40867187 5.1496875 -1.94234375 5.799375 -2.4921875 6.46875 C-2.98976562 6.9740625 -3.48734375 7.479375 -4 8 C-4.66 8 -5.32 8 -6 8 C-4.73058503 4.08597051 -3.48832306 2.20927127 0 0 Z " fill="#B3B3B3" transform="translate(65,60)"/>
</svg>
