<?xml version="1.0" encoding="UTF-8"?>
<svg version="1.1" xmlns="http://www.w3.org/2000/svg" width="147" height="179">
<path d="M0 0 C6.87817489 1.94689494 10.29919303 10.64889252 13.53515625 16.34375 C14.14423828 17.40142578 14.75332031 18.45910156 15.38085938 19.54882812 C20.27194826 28.06927587 25.0641787 36.64536975 29.84326172 45.22900391 C33.86657352 52.44178632 37.98378642 59.59363808 42.16015625 66.71875 C43.3100469 68.68871391 44.45978687 70.65876578 45.609375 72.62890625 C47.38992675 75.67919159 49.17584951 78.72583458 50.97509766 81.76513672 C52.82150849 84.88759612 54.64851252 88.02074375 56.47265625 91.15625 C57.03863525 92.10193848 57.60461426 93.04762695 58.18774414 94.02197266 C61.13370118 99.12743666 63.01585078 102.66374365 62.09765625 108.59375 C60.3020322 111.34704021 59.04510703 113.12002461 56.09765625 114.59375 C53.55150616 114.82547827 51.023694 115.01269529 48.47265625 115.15625 C47.76625 115.19943359 47.05984375 115.24261719 46.33203125 115.28710938 C44.58747088 115.39319751 42.84258928 115.49397889 41.09765625 115.59375 C43.1217309 119.25713235 45.1482114 122.91917089 47.17675781 126.58007812 C47.86391471 127.82093848 48.55045725 129.06213929 49.23632812 130.30371094 C50.23268651 132.10706135 51.23099802 133.90931032 52.23046875 135.7109375 C52.55711014 136.30044693 52.88375153 136.88995636 53.22029114 137.49732971 C55.68804321 141.92444005 58.29462673 146.2495923 61.00708008 150.53051758 C62.68612861 153.7070654 62.71391971 156.10159038 62.09765625 159.59375 C60.7672153 162.91985236 59.9197199 164.2181693 56.64720154 165.71330261 C51.86497059 166.89951166 47.33940941 166.88061972 42.42993164 166.8684082 C40.83614433 166.8760746 40.83614433 166.8760746 39.2101593 166.88389587 C35.70515274 166.89777227 32.20034323 166.89683662 28.6953125 166.89453125 C26.25442939 166.89841907 23.81354696 166.90275392 21.37266541 166.90751648 C16.25924485 166.91497437 11.14589335 166.91469037 6.0324707 166.90942383 C-0.51567602 166.90362802 -7.06354 166.92056528 -13.61163998 166.9437685 C-18.65171457 166.95850943 -23.6917211 166.95937706 -28.73181343 166.95625877 C-31.14590579 166.95677174 -33.56000198 166.96200487 -35.97407341 166.97207069 C-39.35131011 166.98442517 -42.72799653 166.97764896 -46.10522461 166.96606445 C-47.09921265 166.97370819 -48.09320068 166.98135193 -49.11730957 166.98922729 C-54.81172027 166.94611666 -58.87840036 166.34765092 -63.90234375 163.59375 C-66.42283234 160.19106896 -66.17736072 157.24245688 -65.61083984 153.19824219 C-64.16483891 147.88261918 -61.09586814 143.36480564 -58.21484375 138.71875 C-56.98026822 136.68059692 -55.74718558 134.64153878 -54.515625 132.6015625 C-53.91443848 131.61317383 -53.31325195 130.62478516 -52.69384766 129.60644531 C-49.96012866 125.00926728 -47.41792569 120.31301197 -44.90234375 115.59375 C-45.92714844 115.56796875 -46.95195313 115.5421875 -48.0078125 115.515625 C-49.36853074 115.45931942 -50.72920618 115.40197263 -52.08984375 115.34375 C-52.76337891 115.32957031 -53.43691406 115.31539063 -54.13085938 115.30078125 C-58.95970564 115.06522777 -61.49562031 114.00688912 -64.90234375 110.59375 C-66.44173369 107.51497012 -66.52381158 104.91144345 -65.90234375 101.59375 C-64.17722376 97.59755665 -61.98553283 93.90228505 -59.77734375 90.15625 C-59.14570312 89.05732422 -58.5140625 87.95839844 -57.86328125 86.82617188 C-55.89208659 83.40591448 -53.89980799 79.99872056 -51.90234375 76.59375 C-50.71702022 74.56144731 -49.53210788 72.52890472 -48.34765625 70.49609375 C-46.62026906 67.53461423 -44.89095608 64.57434449 -43.15576172 61.61743164 C-38.98065694 54.49208225 -34.91921884 47.30931019 -30.90234375 40.09375 C-26.07371128 31.44205221 -21.21767725 22.80724994 -16.27734375 14.21875 C-15.69726562 13.19587891 -15.1171875 12.17300781 -14.51953125 11.11914062 C-13.97296875 10.17490234 -13.42640625 9.23066406 -12.86328125 8.2578125 C-12.38681152 7.42717285 -11.9103418 6.5965332 -11.41943359 5.74072266 C-8.23472959 1.23375661 -5.49689815 0.26227745 0 0 Z M-3.90234375 7.59375 C-4.308479 8.3057959 -4.71461426 9.0178418 -5.13305664 9.75146484 C-12.52891795 22.71469421 -19.93497198 35.67153224 -27.40234375 48.59375 C-34.63975557 61.11922556 -41.84846351 73.66189858 -48.97998047 86.24804688 C-50.35879456 88.64775075 -51.75782635 91.02405768 -53.18798828 93.39257812 C-53.56343277 94.02367493 -53.93887726 94.65477173 -54.32569885 95.30499268 C-55.05062619 96.52225534 -55.78519451 97.73384336 -56.53062439 98.93865967 C-58.68153765 102.57964558 -58.98357051 103.26884297 -57.90234375 107.59375 C-51.63234375 107.59375 -45.36234375 107.59375 -38.90234375 107.59375 C-37.98195313 105.923125 -37.0615625 104.2525 -36.11328125 102.53125 C-29.55764658 90.66202746 -22.95363221 78.8244791 -16.15234375 67.09375 C-15.56888184 66.08054688 -14.98541992 65.06734375 -14.38427734 64.0234375 C-13.83852051 63.08757812 -13.29276367 62.15171875 -12.73046875 61.1875 C-12.25512695 60.36958984 -11.77978516 59.55167969 -11.29003906 58.70898438 C-9.48662901 55.96008488 -7.85267604 54.06891614 -4.90234375 52.59375 C-0.92124586 52.33411318 1.73143989 52.41211137 5.09765625 54.59375 C6.61474609 56.73486328 6.61474609 56.73486328 8.05859375 59.4140625 C8.8798877 60.9132019 8.8798877 60.9132019 9.71777344 62.44262695 C10.29688477 63.52374756 10.87599609 64.60486816 11.47265625 65.71875 C12.71280414 67.98679352 13.95505142 70.25369016 15.19921875 72.51953125 C15.51697266 73.10069199 15.83472656 73.68185272 16.16210938 74.28062439 C20.17430646 81.5999228 24.42047668 88.78221009 28.65380859 95.97509766 C29.20762207 96.91788574 29.76143555 97.86067383 30.33203125 98.83203125 C30.81897461 99.65743408 31.30591797 100.48283691 31.80761719 101.33325195 C32.97609733 103.38074582 34.04337194 105.48518139 35.09765625 107.59375 C41.36765625 107.59375 47.63765625 107.59375 54.09765625 107.59375 C55.25480467 102.96515632 54.8919252 102.51826554 52.625 98.578125 C52.06248535 97.58707764 51.4999707 96.59603027 50.92041016 95.57495117 C50.29827637 94.50865479 49.67614258 93.4423584 49.03515625 92.34375 C48.39755371 91.22911377 47.75995117 90.11447754 47.10302734 88.96606445 C45.11509207 85.50025303 43.10927934 82.04585572 41.09765625 78.59375 C40.50903809 77.58038574 39.92041992 76.56702148 39.31396484 75.52294922 C37.04858124 71.6248801 34.77858286 67.72960002 32.49853516 63.84008789 C28.26441795 56.61666276 24.08886073 49.3618087 19.94146729 42.08840942 C18.92088348 40.30004725 17.89803558 38.51299922 16.87451172 36.72631836 C13.80781735 31.36931681 10.76192207 26.00312818 7.78125 20.59765625 C7.28069092 19.70151611 6.78013184 18.80537598 6.2644043 17.88208008 C5.34590415 16.23644058 4.43903864 14.58423174 3.54614258 12.92456055 C2.2528042 10.53948499 2.2528042 10.53948499 0.09765625 7.59375 C-1.22234375 7.59375 -2.54234375 7.59375 -3.90234375 7.59375 Z M-2.90234375 58.59375 C-8.04510752 65.96821026 -12.48870872 73.70905489 -16.90234375 81.53125 C-18.27562732 83.95800696 -19.65116612 86.38347709 -21.02734375 88.80859375 C-21.35653809 89.39047455 -21.68573242 89.97235535 -22.02490234 90.5718689 C-24.54455441 95.01024229 -27.17263481 99.37370359 -29.87109375 103.70532227 C-31.06210421 105.52769396 -31.06210421 105.52769396 -30.90234375 107.59375 C-11.76234375 107.59375 7.37765625 107.59375 27.09765625 107.59375 C25.61273632 103.88145017 24.12958317 100.68774307 22.19140625 97.234375 C21.61696777 96.20836182 21.0425293 95.18234863 20.45068359 94.12524414 C19.83918457 93.04235107 19.22768555 91.95945801 18.59765625 90.84375 C17.65913818 89.17977173 17.65913818 89.17977173 16.70166016 87.48217773 C15.43502063 85.2413372 14.16632126 83.00165968 12.89550781 80.76318359 C11.76840829 78.77621918 10.64480704 76.78726186 9.52636719 74.79541016 C8.18593767 72.40933627 6.8320688 70.03154504 5.47265625 67.65625 C5.08400391 66.95983398 4.69535156 66.26341797 4.29492188 65.54589844 C2.25352987 62.02458691 0.81421256 60.20451657 -2.90234375 58.59375 Z M-35.90234375 114.59375 C-36.49578331 115.66051216 -36.49578331 115.66051216 -37.10121155 116.74882507 C-38.9195647 120.0147006 -40.74100942 123.27884211 -42.5625 126.54296875 C-43.18467407 127.66151245 -43.80684814 128.78005615 -44.44787598 129.93249512 C-48.28100644 136.7954204 -52.18068625 143.59291557 -56.49523926 150.16662598 C-58.48161527 153.30119044 -58.48161527 153.30119044 -58.6875 156.91796875 C-58.02043704 158.58909157 -58.02043704 158.58909157 -56.90234375 159.59375 C-55.47753604 159.69360952 -54.04782184 159.72449913 -52.61952209 159.72746277 C-51.6954808 159.73172775 -50.77143951 159.73599274 -49.81939697 159.74038696 C-48.7975531 159.73993378 -47.77570923 159.73948059 -46.72290039 159.73901367 C-45.65307419 159.74237228 -44.58324799 159.7457309 -43.48100281 159.74919128 C-39.92482358 159.75873372 -36.36869126 159.76064602 -32.8125 159.76171875 C-30.35249308 159.76492897 -27.89248636 159.76829286 -25.43247986 159.77180481 C-20.26821449 159.77780428 -15.10396588 159.77964387 -9.93969727 159.77905273 C-3.30690457 159.77895105 3.32578122 159.7926062 9.95854855 159.80982494 C15.04131061 159.82091751 20.1240466 159.82297279 25.20681953 159.82244301 C27.6529534 159.82362717 30.09908786 159.82807311 32.54520988 159.83577538 C35.95982325 159.8455203 39.3742016 159.84271906 42.78881836 159.83666992 C43.808638 159.84228943 44.82845764 159.84790894 45.87918091 159.85369873 C46.80604202 159.84950424 47.73290314 159.84530975 48.68785095 159.84098816 C49.49588637 159.84153293 50.30392179 159.84207769 51.13644314 159.84263897 C53.33232509 159.76738704 53.33232509 159.76738704 55.09765625 157.59375 C54.72238144 153.91258025 52.74473367 150.89885964 50.96484375 147.71875 C50.32289063 146.56761719 49.6809375 145.41648438 49.01953125 144.23046875 C48.33725448 143.01822078 47.65496276 141.80598123 46.97265625 140.59375 C46.31339878 139.41298551 45.65454103 138.23199774 44.99609375 137.05078125 C42.66108075 132.84121199 42.66108075 132.84121199 40.23799133 128.68243408 C39.09765625 126.59375 39.09765625 126.59375 37.84049988 123.52996826 C36.22566742 120.01857112 34.76368459 117.40267943 32.09765625 114.59375 C26.90881321 112.92448766 21.90725475 113.18813863 16.5390625 113.421875 C15.02455901 113.44428294 13.50996797 113.46135208 11.99534607 113.47332764 C8.02601025 113.51895269 4.06202252 113.63661114 0.0947876 113.76977539 C-3.96016059 113.89298222 -8.0159816 113.94743101 -12.07226562 114.0078125 C-20.01806827 114.13616043 -27.95953926 114.3406851 -35.90234375 114.59375 Z " fill="#E80504" transform="translate(77.90234375,5.40625)"/>
<path d="M0 0 C4.09669922 1.98614507 5.92251144 3.93395065 8.05859375 7.91796875 C8.60314209 8.9143335 9.14769043 9.91069824 9.70874023 10.93725586 C10.27923096 12.00983643 10.84972168 13.08241699 11.4375 14.1875 C12.66430452 16.44399418 13.89354194 18.69916706 15.125 20.953125 C15.43904282 21.5307811 15.75308563 22.10843719 16.0766449 22.70359802 C20.11808032 30.10771687 24.46244871 37.33573882 28.82006836 44.55737305 C29.38346924 45.50652588 29.94687012 46.45567871 30.52734375 47.43359375 C31.28132446 48.68740845 31.28132446 48.68740845 32.05053711 49.96655273 C32.52052124 50.97310913 32.52052124 50.97310913 33 52 C32.505 52.99 32.505 52.99 32 54 C31.34 53.67 30.68 53.34 30 53 C30 52.01 30 51.02 30 50 C27.62596029 52.37403971 27.57888764 53.77476889 27 57 C26 58 26 58 23.63987732 58.12025452 C22.59396927 58.11803391 21.54806122 58.11581329 20.47045898 58.11352539 C19.28931015 58.11344986 18.10816132 58.11337433 16.89122009 58.11329651 C15.6058284 58.10813522 14.32043671 58.10297394 12.99609375 58.09765625 C11.68794205 58.0962413 10.37979034 58.09482635 9.03199768 58.09336853 C5.54837141 58.0895441 2.06478661 58.07971446 -1.41882324 58.06866455 C-4.97126708 58.05844882 -8.52371759 58.05387056 -12.07617188 58.04882812 C-19.05079832 58.03809212 -26.02539717 58.0210166 -33 58 C-33.33 56.35 -33.66 54.7 -34 53 C-32.68 52.34 -31.36 51.68 -30 51 C-30 49.35 -30 47.7 -30 46 C-29.34 46 -28.68 46 -28 46 C-28.66 45.34 -29.32 44.68 -30 44 C-32.10820797 44.3185177 -32.10820797 44.3185177 -34 45 C-32.60872658 41.31441906 -30.94644662 37.93651584 -29.0234375 34.5 C-28.43868652 33.45336182 -27.85393555 32.40672363 -27.25146484 31.32836914 C-26.32261475 29.68082642 -26.32261475 29.68082642 -25.375 28 C-24.74416504 26.88036865 -24.11333008 25.7607373 -23.46337891 24.60717773 C-16.48366485 12.26583128 -16.48366485 12.26583128 -13.375 7.0625 C-12.80523437 6.10472656 -12.23546875 5.14695312 -11.6484375 4.16015625 C-8.46327391 -0.01376666 -5.09041048 -0.51942964 0 0 Z M-4 7 C-9.14276377 14.37446026 -13.58636497 22.11530489 -18 29.9375 C-19.37328357 32.36425696 -20.74882237 34.78972709 -22.125 37.21484375 C-22.45419434 37.79672455 -22.78338867 38.37860535 -23.12255859 38.9781189 C-25.64221066 43.41649229 -28.27029106 47.77995359 -30.96875 52.11157227 C-32.15976046 53.93394396 -32.15976046 53.93394396 -32 56 C-12.86 56 6.28 56 26 56 C24.51508007 52.28770017 23.03192692 49.09399307 21.09375 45.640625 C20.51931152 44.61461182 19.94487305 43.58859863 19.35302734 42.53149414 C18.74152832 41.44860107 18.1300293 40.36570801 17.5 39.25 C16.56148193 37.58602173 16.56148193 37.58602173 15.60400391 35.88842773 C14.33736438 33.6475872 13.06866501 31.40790968 11.79785156 29.16943359 C10.67075204 27.18246918 9.54715079 25.19351186 8.42871094 23.20166016 C7.08828142 20.81558627 5.73441255 18.43779504 4.375 16.0625 C3.98634766 15.36608398 3.59769531 14.66966797 3.19726562 13.95214844 C1.15587362 10.43083691 -0.28344369 8.61076657 -4 7 Z " fill="#DC0E0E" transform="translate(79,57)"/>
<path d="M0 0 C0 0.66 0 1.32 0 2 C23.43 2 46.86 2 71 2 C71 2.33 71 2.66 71 3 C48.56 3 26.12 3 3 3 C2.34 4.65 1.68 6.3 1 8 C-0.07210725 10.052712 -1.17532971 12.08932489 -2.30078125 14.11328125 C-2.61903366 14.68652634 -2.93728607 15.25977142 -3.2651825 15.85038757 C-3.93699401 17.05885162 -4.61026412 18.26650584 -5.28491211 19.47338867 C-6.30250204 21.29460629 -7.31468757 23.11874518 -8.32617188 24.94335938 C-11.09982118 29.92727511 -13.86579223 34.86441413 -17.04296875 39.60546875 C-19.50161002 42.96178556 -19.50161002 42.96178556 -18 47 C17.97 47.33 53.94 47.66 91 48 C90.505 48.99 90.505 48.99 90 50 C54.69 49.67 19.38 49.34 -17 49 C-17.495 51.475 -17.495 51.475 -18 54 C-21.5447602 53.76368265 -23.41978239 53.59893431 -25.9375 51 C-27.79508635 45.75505029 -26.99273452 41.13693782 -24.69750977 36.19628906 C-22.97497348 33.12253862 -21.16936674 30.11945789 -19.3125 27.125 C-18.07792447 25.08684692 -16.84484183 23.04778878 -15.61328125 21.0078125 C-15.01209473 20.01942383 -14.4109082 19.03103516 -13.79150391 18.01269531 C-11.05666378 13.41363193 -8.52850377 8.71521287 -6 4 C-10.95 3.67 -15.9 3.34 -21 3 C-21 2.67 -21 2.34 -21 2 C-19.41058594 1.90912109 -19.41058594 1.90912109 -17.7890625 1.81640625 C-16.40102779 1.73199873 -15.01300768 1.64735083 -13.625 1.5625 C-12.92632812 1.52318359 -12.22765625 1.48386719 -11.5078125 1.44335938 C-7.41763817 1.18772348 -4.04400028 0 0 0 Z " fill="#E1090A" transform="translate(39,117)"/>
<path d="M0 0 C0.66 0.33 1.32 0.66 2 1 C2 1.66 2 2.32 2 3 C1.34 3 0.68 3 0 3 C0.061875 3.78375 0.12375 4.5675 0.1875 5.375 C0.0946875 6.674375 0.0946875 6.674375 0 8 C-0.99 8.66 -1.98 9.32 -3 10 C-3 11.32 -3 12.64 -3 14 C16.47 14 35.94 14 56 14 C56.33 12.35 56.66 10.7 57 9 C57.33 8.34 57.66 7.68 58 7 C58.66 7 59.32 7 60 7 C60 7.99 60 8.98 60 10 C60.99 10.33 61.98 10.66 63 11 C63 12.32 63 13.64 63 15 C68.61 15 74.22 15 80 15 C80.495 16.98 80.495 16.98 81 19 C76.71 19 72.42 19 68 19 C68.433125 20.629375 68.86625 22.25875 69.3125 23.9375 C69.55613281 24.85402344 69.79976563 25.77054688 70.05078125 26.71484375 C70.36402344 27.46894531 70.67726563 28.22304687 71 29 C72.485 29.495 72.485 29.495 74 30 C73.6875 31.9375 73.6875 31.9375 73 34 C71.515 34.495 71.515 34.495 70 35 C70 33.68 70 32.36 70 31 C68.515 30.505 68.515 30.505 67 30 C66.505 27.03 66.505 27.03 66 24 C64.515 23.505 64.515 23.505 63 23 C63 22.34 63 21.68 63 21 C62.34 21 61.68 21 61 21 C61 20.34 61 19.68 61 19 C60.11938904 19.00222061 59.23877808 19.00444122 58.33148193 19.00672913 C50.03282388 19.02676563 41.73417396 19.04199131 33.43549728 19.05181217 C29.16906452 19.05703089 24.90265173 19.06411023 20.63623047 19.07543945 C16.51896213 19.0863042 12.40171302 19.09228446 8.28443146 19.09487724 C6.71356148 19.09672501 5.14269255 19.10033321 3.57183075 19.10573006 C1.37175725 19.11298806 -0.82823677 19.11398893 -3.02832031 19.11352539 C-4.9069577 19.11685631 -4.9069577 19.11685631 -6.82354736 19.12025452 C-9.44835389 19.02088428 -11.49011376 18.63948731 -14 18 C-14.66 18.33 -15.32 18.66 -16 19 C-18.55157655 19.0716735 -21.07472971 19.09308442 -23.625 19.0625 C-24.33140625 19.05798828 -25.0378125 19.05347656 -25.765625 19.04882812 C-27.51045275 19.03703875 -29.255237 19.01910324 -31 19 C-31 18.34 -31 17.68 -31 17 C-30.34 17 -29.68 17 -29 17 C-29 16.34 -29 15.68 -29 15 C-18.605 14.505 -18.605 14.505 -8 14 C-7.34 10.7 -6.68 7.4 -6 4 C-3 1 -3 1 0 0 Z " fill="#F30202" transform="translate(49,100)"/>
<path d="M0 0 C2 0 2 0 3.5 1.125 C5.4378994 3.54737425 6.04481945 6.07077964 7 9 C7.66 9.33 8.32 9.66 9 10 C9 11.32 9 12.64 9 14 C12.16666667 12.16666667 12.16666667 12.16666667 14 9 C14.41362793 9.74161377 14.82725586 10.48322754 15.25341797 11.24731445 C16.79182082 14.00421358 18.331328 16.76049217 19.87158203 19.51635742 C20.53738882 20.70816778 21.20275769 21.9002229 21.86767578 23.0925293 C22.82468742 24.80842684 23.78341652 26.52336614 24.7421875 28.23828125 C25.3182373 29.26993408 25.89428711 30.30158691 26.48779297 31.36450195 C27.58938152 33.2843677 28.77219623 35.15829434 30 37 C30.35042485 40.78458841 30.26916315 43.34834184 28.8125 46.875 C26.62503298 49.4396165 25.30133235 49.7323244 22 50 C22.66 48.68 23.32 47.36 24 46 C23.2265625 45.38125 23.2265625 45.38125 22.4375 44.75 C21.963125 44.1725 21.48875 43.595 21 43 C21.19070068 42.41009277 21.38140137 41.82018555 21.57788086 41.21240234 C22.19014536 38.00341394 20.98449544 36.61324032 19.31640625 33.8515625 C18.72166504 32.8519751 18.12692383 31.8523877 17.51416016 30.82250977 C16.8701123 29.76733154 16.22606445 28.71215332 15.5625 27.625 C14.26916339 25.45985511 12.97619315 23.29449134 11.68359375 21.12890625 C11.05179199 20.07977051 10.41999023 19.03063477 9.76904297 17.94970703 C7.5081253 14.1798468 5.30326501 10.38054759 3.125 6.5625 C2.50882812 5.49128906 1.89265625 4.42007813 1.2578125 3.31640625 C0 1 0 1 0 0 Z " fill="#D60F0F" transform="translate(110,121)"/>
<path d="M0 0 C1.32 0.33 2.64 0.66 4 1 C4 2.32 4 3.64 4 5 C4.66 5.33 5.32 5.66 6 6 C6.495 6.680625 6.99 7.36125 7.5 8.0625 C7.995 8.701875 8.49 9.34125 9 10 C9.66 10 10.32 10 11 10 C11.33 9.34 11.66 8.68 12 8 C11.34 8 10.68 8 10 8 C10.33 6.68 10.66 5.36 11 4 C12.70050657 6.78394043 14.38311625 9.57827525 16.0625 12.375 C16.54783203 13.1690625 17.03316406 13.963125 17.53320312 14.78125 C17.98759766 15.54179688 18.44199219 16.30234375 18.91015625 17.0859375 C19.33433838 17.7876709 19.75852051 18.4894043 20.19555664 19.21240234 C20.46102295 19.80230957 20.72648926 20.3922168 21 21 C20.67 21.66 20.34 22.32 20 23 C19.34 22.67 18.68 22.34 18 22 C18 21.01 18 20.02 18 19 C15.62596029 21.37403971 15.57888764 22.77476889 15 26 C14 27 14 27 11.63987732 27.12025452 C10.59396927 27.11803391 9.54806122 27.11581329 8.47045898 27.11352539 C7.28931015 27.11344986 6.10816132 27.11337433 4.89122009 27.11329651 C3.6058284 27.10813522 2.32043671 27.10297394 0.99609375 27.09765625 C-0.31205795 27.0962413 -1.62020966 27.09482635 -2.96800232 27.09336853 C-6.45162859 27.0895441 -9.93521339 27.07971446 -13.41882324 27.06866455 C-16.97126708 27.05844882 -20.52371759 27.05387056 -24.07617188 27.04882812 C-31.05079832 27.03809212 -38.02539717 27.0210166 -45 27 C-45.33 25.35 -45.66 23.7 -46 22 C-44.68 21.34 -43.36 20.68 -42 20 C-42.99 22.475 -42.99 22.475 -44 25 C-24.86 25 -5.72 25 14 25 C9.38 17.08 4.76 9.16 0 1 C0 0.67 0 0.34 0 0 Z " fill="#CD1312" transform="translate(91,88)"/>
<path d="M0 0 C2.92562465 2.79842358 3.92021076 4.15423405 4.3125 8.3125 C3.95124058 12.57536111 2.98007946 14.01992054 0 17 C-3.04213267 18.52106634 -6.28047572 18.37429338 -9.625 18.5625 C-10.33140625 18.60568359 -11.0378125 18.64886719 -11.765625 18.69335938 C-13.51018537 18.79944751 -15.25506697 18.90022889 -17 19 C-16.319375 20.11375 -15.63875 21.2275 -14.9375 22.375 C-13.77734375 24.2734375 -13.77734375 24.2734375 -13 26 C-13.33 26.66 -13.66 27.32 -14 28 C-16.34191563 25.8709858 -17.83554954 23.95591271 -19 21 C-19 19.68 -19 18.36 -19 17 C-15.04 16.67 -11.08 16.34 -7 16 C-7.33 15.34 -7.66 14.68 -8 14 C-10.71446979 13.68758545 -13.33909361 13.48663408 -16.0625 13.375 C-17.20041992 13.31699219 -17.20041992 13.31699219 -18.36132812 13.2578125 C-20.24047195 13.16326438 -22.12020336 13.08053244 -24 13 C-23.67 11.68 -23.34 10.36 -23 9 C-23 9.66 -23 10.32 -23 11 C-16.73 10.67 -10.46 10.34 -4 10 C-4.33 7.69 -4.66 5.38 -5 3 C-4.34 3.33 -3.68 3.66 -3 4 C-3 4.66 -3 5.32 -3 6 C-1.68 6 -0.36 6 1 6 C0.67 4.02 0.34 2.04 0 0 Z " fill="#E00E0F" transform="translate(136,102)"/>
<path d="M0 0 C0 0.66 0 1.32 0 2 C23.43 2 46.86 2 71 2 C71 2.33 71 2.66 71 3 C48.56 3 26.12 3 3 3 C2.34 4.65 1.68 6.3 1 8 C-0.26182389 10.38088669 -1.63304501 12.67617651 -3 15 C-3.99 14.67 -4.98 14.34 -6 14 C-7.478746 9.563762 -5.74833678 7.26594174 -4 3 C-9.61 3 -15.22 3 -21 3 C-21 2.67 -21 2.34 -21 2 C-19.41058594 1.90912109 -19.41058594 1.90912109 -17.7890625 1.81640625 C-16.40102779 1.73199873 -15.01300768 1.64735083 -13.625 1.5625 C-12.92632812 1.52318359 -12.22765625 1.48386719 -11.5078125 1.44335938 C-7.41763817 1.18772348 -4.04400028 0 0 0 Z " fill="#DE1515" transform="translate(39,117)"/>
<path d="M0 0 C0.40221173 0.649296 0.80442347 1.298592 1.21882343 1.96756363 C2.79682194 4.16008791 2.79682194 4.16008791 5.07143688 4.50780869 C5.87247499 4.51149586 6.67351309 4.51518303 7.49882507 4.51898193 C8.88072525 4.53985115 8.88072525 4.53985115 10.2905426 4.56114197 C11.29898727 4.5561116 12.30743195 4.55108124 13.34643555 4.54589844 C14.41001282 4.55623611 15.47359009 4.56657379 16.56939697 4.57722473 C20.09198997 4.60677011 23.61401131 4.60815442 27.13671875 4.609375 C29.57624923 4.62434866 32.01576953 4.64107407 34.45527649 4.65948486 C40.88160657 4.70326163 47.30779989 4.72318047 53.73425293 4.73822021 C60.28971478 4.75775401 66.84502813 4.79972818 73.40039062 4.83984375 C86.26687687 4.9152578 99.13334051 4.96624325 112 5 C111.67 5.66 111.34 6.32 111 7 C75.69 6.67 40.38 6.34 4 6 C3.67 7.65 3.34 9.3 3 11 C0.0625 10.625 0.0625 10.625 -3 10 C-3.33 9.34 -3.66 8.68 -4 8 C-1.03 8.495 -1.03 8.495 2 9 C1.67 8.2575 1.34 7.515 1 6.75 C0 4 0 4 0 0 Z " fill="#F21614" transform="translate(18,160)"/>
<path d="M0 0 C0.66 0.33 1.32 0.66 2 1 C1.67 1.99 1.34 2.98 1 4 C1.99 3.67 2.98 3.34 4 3 C6.1875 3.9375 6.1875 3.9375 8 5 C7.38125 5.061875 6.7625 5.12375 6.125 5.1875 C5.42375 5.455625 4.7225 5.72375 4 6 C3.30783938 7.6562415 2.64800425 9.32598903 2 11 C0.69506357 13.47811434 -0.71472999 15.89311452 -2.125 18.3125 C-2.49753906 18.95767578 -2.87007813 19.60285156 -3.25390625 20.26757812 C-4.16632213 21.84675945 -5.08275509 23.42361864 -6 25 C-6.33 24.01 -6.66 23.02 -7 22 C-6.03114628 20.31503702 -5.03013277 18.64821244 -4 17 C-4 16.01 -4 15.02 -4 14 C-4.99 13.67 -5.98 13.34 -7 13 C-7.33 14.65 -7.66 16.3 -8 18 C-8.66 18 -9.32 18 -10 18 C-8.6948802 13.5730861 -6.9640877 10.04331547 -4.4375 6.1875 C-3.81746094 5.23230469 -3.19742188 4.27710938 -2.55859375 3.29296875 C-1 1 -1 1 0 0 Z " fill="#D60C0D" transform="translate(70,7)"/>
<path d="M0 0 C0.33 0.66 0.66 1.32 1 2 C1.61359375 2.09925781 2.2271875 2.19851562 2.859375 2.30078125 C6.05900181 3.34591482 6.69412004 5.27611856 8.25 8.1875 C8.77078125 9.12980469 9.2915625 10.07210937 9.828125 11.04296875 C11.09993919 14.25217989 11.22289402 16.58060316 11 20 C11.66 20 12.32 20 13 20 C12.67 21.32 12.34 22.64 12 24 C12 23.34 12 22.68 12 22 C11.01 22.33 10.02 22.66 9 23 C9 22.01 9 21.02 9 20 C8.01 19.67 7.02 19.34 6 19 C5.67 17.02 5.34 15.04 5 13 C3.68 12.67 2.36 12.34 1 12 C1 10.02 1 8.04 1 6 C0.34 6 -0.32 6 -1 6 C-1.33 4.68 -1.66 3.36 -2 2 C-1.34 2 -0.68 2 0 2 C0 1.34 0 0.68 0 0 Z " fill="#E80707" transform="translate(90,76)"/>
<path d="M0 0 C2.475 0.99 2.475 0.99 5 2 C5 2.66 5 3.32 5 4 C5.60328125 4.07992187 6.2065625 4.15984375 6.828125 4.2421875 C10.42821432 5.49833378 11.33155307 8.3252161 13.02734375 11.56640625 C14.38478437 14.96273358 14.38404767 17.38995195 14 21 C10.30642932 20.40296106 10.06996923 20.09642819 7.67578125 16.796875 C6.8750025 15.45560379 6.08767183 14.10623143 5.3125 12.75 C4.90966797 12.08097656 4.50683594 11.41195312 4.09179688 10.72265625 C2.01353398 7.17881768 0.47486239 4.15303381 0 0 Z " fill="#E70809" transform="translate(126,144)"/>
<path d="M0 0 C2.94859918 0.58971984 4.60492721 1.47031792 6.41015625 3.890625 C9.15975256 8.60421867 10.65263437 12.55793851 11 18 C9.68 18.33 8.36 18.66 7 19 C5 16 5 16 5 12 C4.01 11.67 3.02 11.34 2 11 C1.67 9.02 1.34 7.04 1 5 C0.34 5 -0.32 5 -1 5 C-0.67 3.35 -0.34 1.7 0 0 Z " fill="#E60808" transform="translate(94,33)"/>
<path d="M0 0 C0.33 1.32 0.66 2.64 1 4 C0.34 4 -0.32 4 -1 4 C-1.33 5.65 -1.66 7.3 -2 9 C0.46278801 9 1.85224119 8.14547137 4 7 C2.57250019 10.79049707 0.83763458 14.27122456 -1.125 17.8125 C-1.66382813 18.78832031 -2.20265625 19.76414062 -2.7578125 20.76953125 C-3.16773438 21.50558594 -3.57765625 22.24164063 -4 23 C-4.33 21.68 -4.66 20.36 -5 19 C-4.34 18.67 -3.68 18.34 -3 18 C-3.66 17.01 -4.32 16.02 -5 15 C-5.66 16.32 -6.32 17.64 -7 19 C-7.66 18.67 -8.32 18.34 -9 18 C-9.33 19.65 -9.66 21.3 -10 23 C-10.66 23 -11.32 23 -12 23 C-10.46688715 17.48431813 -7.81247556 12.97965148 -4.875 8.125 C-4.40707031 7.34125 -3.93914063 6.5575 -3.45703125 5.75 C-2.30981892 3.83017528 -1.1573993 1.91369439 0 0 Z " fill="#D90C0D" transform="translate(44,51)"/>
<path d="M0 0 C0.66 0.33 1.32 0.66 2 1 C1.77169299 2.62818946 1.51656424 4.2526349 1.25 5.875 C1.11078125 6.77992187 0.9715625 7.68484375 0.828125 8.6171875 C0 11 0 11 -2 12.15625 C-2.66 12.4346875 -3.32 12.713125 -4 13 C-5.28254644 15.53770003 -5.28254644 15.53770003 -6 18 C-7.32 18 -8.64 18 -10 18 C-10 17.01 -10 16.02 -10 15 C-9.34 15 -8.68 15 -8 15 C-7.67 13.02 -7.34 11.04 -7 9 C-6.34 9 -5.68 9 -5 9 C-4.67 7.35 -4.34 5.7 -4 4 C-3.34 4 -2.68 4 -2 4 C-1.34 2.68 -0.68 1.36 0 0 Z " fill="#F00404" transform="translate(39,65)"/>
<path d="M0 0 C2.99130289 2.86124624 3.93929745 4.16533993 4.25 8.4375 C4 12 4 12 2.5 13.9375 C2.005 14.288125 1.51 14.63875 1 15 C1 14.01 1 13.02 1 12 C-6.26 12 -13.52 12 -21 12 C-21 11.67 -21 11.34 -21 11 C-12.585 10.505 -12.585 10.505 -4 10 C-4.33 7.69 -4.66 5.38 -5 3 C-4.34 3.33 -3.68 3.66 -3 4 C-3 4.66 -3 5.32 -3 6 C-1.68 6 -0.36 6 1 6 C0.67 4.02 0.34 2.04 0 0 Z " fill="#D3100F" transform="translate(136,102)"/>
<path d="M0 0 C0.99 0 1.98 0 3 0 C3 0.99 3 1.98 3 3 C3.928125 3.12375 3.928125 3.12375 4.875 3.25 C7 4 7 4 8.25 5.75 C9.0957901 8.28737029 9.14764761 10.34234296 9 13 C7.68 13.33 6.36 13.66 5 14 C3.964031 12.42652824 2.94668268 10.84078454 1.9375 9.25 C1.36902344 8.36828125 0.80054687 7.4865625 0.21484375 6.578125 C-1 4 -1 4 -0.68359375 1.671875 C-0.45800781 1.12015625 -0.23242188 0.5684375 0 0 Z " fill="#E80806" transform="translate(80,61)"/>
<path d="M0 0 C7.38461538 -0.36923077 7.38461538 -0.36923077 10.5 1.5 C10.995 1.995 11.49 2.49 12 3 C11.45276317 6.37462715 10.9451 8.08235 9 11 C8.67 9.68 8.34 8.36 8 7 C3.545 6.01 3.545 6.01 -1 5 C-0.67 3.35 -0.34 1.7 0 0 Z " fill="#E50909" transform="translate(72,6)"/>
<path d="M0 0 C0.66 0 1.32 0 2 0 C1.67 1.65 1.34 3.3 1 5 C19.81 5.33 38.62 5.66 58 6 C58 6.33 58 6.66 58 7 C38.53 7 19.06 7 -1 7 C-1.33 5.35 -1.66 3.7 -2 2 C-1.34 1.34 -0.68 0.68 0 0 Z " fill="#DC0B09" transform="translate(47,108)"/>
<path d="M0 0 C2.9552728 2.61778794 4.75832727 5.67583335 6.75 9.0625 C7.38421875 10.12597656 8.0184375 11.18945312 8.671875 12.28515625 C9.11015625 13.18105469 9.5484375 14.07695313 10 15 C9.67 15.66 9.34 16.32 9 17 C7 15.75 7 15.75 5 14 C5 12.68 5 11.36 5 10 C4.01 10 3.02 10 2 10 C1.67 10.99 1.34 11.98 1 13 C1.66 13.33 2.32 13.66 3 14 C2.67 14.99 2.34 15.98 2 17 C-1.465 11.06 -1.465 11.06 -5 5 C-4.34 4.67 -3.68 4.34 -3 4 C-2.67 5.32 -2.34 6.64 -2 8 C-1.34 7.67 -0.68 7.34 0 7 C0 4.69 0 2.38 0 0 Z " fill="#D61011" transform="translate(112,60)"/>
<path d="M0 0 C0.66 0 1.32 0 2 0 C3.65 2.97 5.3 5.94 7 9 C7.99 9 8.98 9 10 9 C9.67 7.02 9.34 5.04 9 3 C11.61500768 5.36595933 13.38999603 7.86049226 15 11 C14.67 11.66 14.34 12.32 14 13 C13.01 13 12.02 13 11 13 C10.67 13.99 10.34 14.98 10 16 C10.66 16 11.32 16 12 16 C12.33 17.98 12.66 19.96 13 22 C10.61881926 19.80857027 9.0781058 17.63409976 7.51953125 14.8046875 C7.07802734 14.00675781 6.63652344 13.20882812 6.18164062 12.38671875 C5.72982422 11.55785156 5.27800781 10.72898437 4.8125 9.875 C4.34908203 9.03839844 3.88566406 8.20179687 3.40820312 7.33984375 C0 1.14584867 0 1.14584867 0 0 Z " fill="#D11012" transform="translate(83,22)"/>
<path d="M0 0 C1.32 0.33 2.64 0.66 4 1 C4.0825 1.598125 4.165 2.19625 4.25 2.8125 C4.82017129 5.16336894 4.82017129 5.16336894 7 6.4375 C9 8 9 8 9.75 10.6875 C9.87375 11.8321875 9.87375 11.8321875 10 13 C8.02 13.33 6.04 13.66 4 14 C3.32471777 12.42032193 2.66010306 10.83608097 2 9.25 C1.62875 8.36828125 1.2575 7.4865625 0.875 6.578125 C0 4 0 4 0 0 Z " fill="#E10C09" transform="translate(113,69)"/>
<path d="M0 0 C0.33104736 0.64743164 0.66209473 1.29486328 1.00317383 1.96191406 C3.47733878 4.48720187 5.22607017 4.50853305 8.67619324 4.60565186 C9.42629166 4.60688049 10.17639008 4.60810913 10.94921875 4.609375 C11.72183548 4.62591125 12.49445221 4.64244751 13.29048157 4.65948486 C15.75623462 4.70803858 18.22137072 4.72935088 20.6875 4.75 C22.36005721 4.77815372 24.03258558 4.80808031 25.70507812 4.83984375 C29.80333462 4.91379881 33.90124716 4.96332778 38 5 C38 5.33 38 5.66 38 6 C26.78 6 15.56 6 4 6 C3.67 7.65 3.34 9.3 3 11 C0.0625 10.625 0.0625 10.625 -3 10 C-3.33 9.34 -3.66 8.68 -4 8 C-1.03 8.495 -1.03 8.495 2 9 C1.67 8.2575 1.34 7.515 1 6.75 C0 4 0 4 0 0 Z " fill="#F11413" transform="translate(18,160)"/>
<path d="M0 0 C1.125 3.75 1.125 3.75 0 6 C-0.66 6 -1.32 6 -2 6 C-1.67 6.99 -1.34 7.98 -1 9 C-0.34 9 0.32 9 1 9 C2.6446674 6.53673288 2.6446674 6.53673288 4 4 C4.66 4.33 5.32 4.66 6 5 C3.69 8.96 1.38 12.92 -1 17 C-3 14 -3 14 -3 11 C-3.99 11.33 -4.98 11.66 -6 12 C-4.43358249 7.69235185 -2.31663844 3.93828536 0 0 Z " fill="#D30E0F" transform="translate(31,74)"/>
<path d="M0 0 C0.89674777 2.51089376 1.13172674 3.64535109 0.1875 6.1875 C-1 8 -1 8 -3 9 C-4.35157981 9.09465345 -5.70761148 9.13072162 -7.0625 9.1328125 C-7.85914063 9.13410156 -8.65578125 9.13539062 -9.4765625 9.13671875 C-10.30929688 9.13285156 -11.14203125 9.12898438 -12 9.125 C-13.24910156 9.13080078 -13.24910156 9.13080078 -14.5234375 9.13671875 C-15.32007813 9.13542969 -16.11671875 9.13414063 -16.9375 9.1328125 C-17.66839844 9.13168457 -18.39929688 9.13055664 -19.15234375 9.12939453 C-21 9 -21 9 -23 8 C-22.67 7.34 -22.34 6.68 -22 6 C-15.73 6.33 -9.46 6.66 -3 7 C-2.34 5.02 -1.68 3.04 -1 1 C-0.67 0.67 -0.34 0.34 0 0 Z " fill="#CC1012" transform="translate(42,106)"/>
<path d="M0 0 C0.99 0.33 1.98 0.66 3 1 C3.309375 1.825 3.61875 2.65 3.9375 3.5 C4.288125 4.325 4.63875 5.15 5 6 C7.04105639 6.88693303 7.04105639 6.88693303 9 7 C8.67 5.35 8.34 3.7 8 2 C9.80627247 3.57067171 10.90943569 4.79299586 11.875 7 C11.936875 7.99 11.936875 7.99 12 9 C10.625 10.5 10.625 10.5 9 12 C8.38309252 14.0503081 8.38309252 14.0503081 8 16 C6.66141476 13.71125827 5.32898986 11.41930344 4 9.125 C3.6184375 8.47402344 3.236875 7.82304688 2.84375 7.15234375 C0 2.2265625 0 2.2265625 0 0 Z " fill="#D60F10" transform="translate(96,44)"/>
<path d="M0 0 C1.32 0 2.64 0 4 0 C4 1.65 4 3.3 4 5 C4.99 5 5.98 5 7 5 C7.66 6.98 8.32 8.96 9 11 C7.68 11.33 6.36 11.66 5 12 C4.15556432 10.75747321 3.3248542 9.5056114 2.5 8.25 C1.80390625 7.20585937 1.80390625 7.20585937 1.09375 6.140625 C0 4 0 4 0 0 Z " fill="#F30302" transform="translate(85,20)"/>
<path d="M0 0 C0.33 0.66 0.66 1.32 1 2 C-0.43359375 4.8203125 -0.43359375 4.8203125 -2.4375 8.125 C-3.09621094 9.22070312 -3.75492187 10.31640625 -4.43359375 11.4453125 C-4.95050781 12.28835937 -5.46742187 13.13140625 -6 14 C-7.00016187 11.99967627 -7.49396008 10.16874252 -8 8 C-8.99 8.33 -9.98 8.66 -11 9 C-10.39816251 6.97954558 -9.72693904 4.97888961 -9 3 C-8.34 2.67 -7.68 2.34 -7 2 C-7 2.99 -7 3.98 -7 5 C-5.68 5.33 -4.36 5.66 -3 6 C-3 5.01 -3 4.02 -3 3 C-2.34 3 -1.68 3 -1 3 C-0.67 2.01 -0.34 1.02 0 0 Z " fill="#D40F11" transform="translate(70,69)"/>
<path d="M0 0 C0.66 0.33 1.32 0.66 2 1 C1.67 2.65 1.34 4.3 1 6 C0.34 6 -0.32 6 -1 6 C-1 6.99 -1 7.98 -1 9 C-1.99 9.33 -2.98 9.66 -4 10 C-4 11.32 -4 12.64 -4 14 C-5.32 14.33 -6.64 14.66 -8 15 C-7.33333333 12.33333333 -6.66666667 9.66666667 -6 7 C-5.34 7 -4.68 7 -4 7 C-4 6.01 -4 5.02 -4 4 C-2 1.8125 -2 1.8125 0 0 Z " fill="#F40202" transform="translate(25,141)"/>
<path d="M0 0 C0.33 1.32 0.66 2.64 1 4 C0.34 4 -0.32 4 -1 4 C-1 5.32 -1 6.64 -1 8 C0.65 7.67 2.3 7.34 4 7 C2.92598892 9.91517292 2.22189824 11.77810176 0 14 C-0.66 12.35 -1.32 10.7 -2 9 C-2.33 9.66 -2.66 10.32 -3 11 C-3.66 11 -4.32 11 -5 11 C-5 11.99 -5 12.98 -5 14 C-5.66 14 -6.32 14 -7 14 C-5.23570801 9.02790438 -2.6060834 4.56561939 0 0 Z " fill="#D40D0F" transform="translate(52,37)"/>
<path d="M0 0 C3.09592835 3.5087188 4.74194623 6.49197399 6 11 C4.35 11 2.7 11 1 11 C1 10.34 1 9.68 1 9 C1.66 9 2.32 9 3 9 C3 8.01 3 7.02 3 6 C1.68 6 0.36 6 -1 6 C-0.34 8.64 0.32 11.28 1 14 C-1.72426311 11.64722731 -2.8141763 9.37503669 -4 6 C-2.68 5.34 -1.36 4.68 0 4 C0 2.68 0 1.36 0 0 Z " fill="#D8110F" transform="translate(122,77)"/>
<path d="M0 0 C1.32 0 2.64 0 4 0 C4 0.99 4 1.98 4 3 C3.34 3 2.68 3 2 3 C2 3.66 2 4.32 2 5 C2.9590625 4.7215625 2.9590625 4.7215625 3.9375 4.4375 C4.618125 4.293125 5.29875 4.14875 6 4 C7 5 7 5 7.0625 7.5625 C7.041875 8.366875 7.02125 9.17125 7 10 C6.01 10.33 5.02 10.66 4 11 C4 10.34 4 9.68 4 9 C3.34 9 2.68 9 2 9 C0.50178941 5.62902617 0 3.79557881 0 0 Z " fill="#F20304" transform="translate(121,83)"/>
<path d="M0 0 C1.32 0.33 2.64 0.66 4 1 C3.67 2.65 3.34 4.3 3 6 C2.01 6 1.02 6 0 6 C-0.33 7.98 -0.66 9.96 -1 12 C-2.32 12.33 -3.64 12.66 -5 13 C-4.67 11.35 -4.34 9.7 -4 8 C-3.01 8 -2.02 8 -1 8 C-0.67 5.36 -0.34 2.72 0 0 Z " fill="#F50203" transform="translate(19,97)"/>
<path d="M0 0 C5.75 1.625 5.75 1.625 8 5 C8 6.32 8 7.64 8 9 C6.68 9 5.36 9 4 9 C2 6 2 6 2 2 C1.34 2 0.68 2 0 2 C0 1.34 0 0.68 0 0 Z " fill="#F10302" transform="translate(129,99)"/>
<path d="M0 0 C1.9375 0.625 1.9375 0.625 4 2 C5 4.8125 5 4.8125 5 8 C3.0625 10.875 3.0625 10.875 1 13 C1 11.35 1 9.7 1 8 C1.66 8 2.32 8 3 8 C2.34 7.34 1.68 6.68 1 6 C-1.10820797 6.3185177 -1.10820797 6.3185177 -3 7 C-1.125 2.25 -1.125 2.25 0 0 Z " fill="#D40E0F" transform="translate(48,95)"/>
<path d="M0 0 C2.50037734 2.17424117 3.43628586 3.73045798 4 7 C3.34 7 2.68 7 2 7 C1.67 6.34 1.34 5.68 1 5 C-1.10232344 7.8684413 -1.10232344 7.8684413 -2 11 C-6 4.25 -6 4.25 -6 2 C-5.34 2 -4.68 2 -4 2 C-3.67 2.66 -3.34 3.32 -3 4 C-2.01 2.68 -1.02 1.36 0 0 Z " fill="#D70F10" transform="translate(84,11)"/>
<path d="M0 0 C0.6171875 1.8671875 0.6171875 1.8671875 1 4 C0.38125 4.70125 -0.2375 5.4025 -0.875 6.125 C-3.87997413 10.19055323 -3.80807631 14.05796496 -4 19 C-6 17 -6 17 -6.15234375 15.1171875 C-5.56566718 8.99441744 -3.63878978 4.92780756 0 0 Z " fill="#C91314" transform="translate(18,148)"/>
<path d="M0 0 C1.27596315 3.82788944 0.62344752 5.36656983 -1 9 C-3.125 10.375 -3.125 10.375 -5 11 C-5 11.99 -5 12.98 -5 14 C-5.66 14 -6.32 14 -7 14 C-5.53967505 8.68972746 -3.01679014 4.53669968 0 0 Z " fill="#D2110D" transform="translate(26,134)"/>
<path d="M0 0 C0.66 0 1.32 0 2 0 C2.33 1.98 2.66 3.96 3 6 C2.01 6.495 2.01 6.495 1 7 C1 7.66 1 8.32 1 9 C0.01 9.33 -0.98 9.66 -2 10 C-2.33 8.35 -2.66 6.7 -3 5 C-2.34 5 -1.68 5 -1 5 C-0.67 3.35 -0.34 1.7 0 0 Z " fill="#F40302" transform="translate(26,85)"/>
<path d="M0 0 C1.32 0.33 2.64 0.66 4 1 C4 1.99 4 2.98 4 4 C3.34 4 2.68 4 2 4 C2 5.65 2 7.3 2 9 C0.35 8.01 -1.3 7.02 -3 6 C-2.67 5.01 -2.34 4.02 -2 3 C-1.34 3 -0.68 3 0 3 C0 2.01 0 1.02 0 0 Z " fill="#F10203" transform="translate(29,131)"/>
<path d="M0 0 C1.32 0.33 2.64 0.66 4 1 C3.50168276 4.68754757 2.89932357 6.60490662 0 9 C-1.125 7.3125 -1.125 7.3125 -2 5 C-1.125 2.25 -1.125 2.25 0 0 Z " fill="#F30203" transform="translate(63,20)"/>
<path d="M0 0 C2.50037734 2.17424117 3.43628586 3.73045798 4 7 C3.34 7 2.68 7 2 7 C2 6.34 2 5.68 2 5 C1.34 5 0.68 5 0 5 C0 3.35 0 1.7 0 0 Z M-5 4 C-2.525 4.495 -2.525 4.495 0 5 C0 7.31 0 9.62 0 12 C-2.25245881 9.31158141 -3.88213958 7.35358125 -5 4 Z " fill="#CE1115" transform="translate(128,88)"/>
<path d="M0 0 C0.99 0 1.98 0 3 0 C3 0.99 3 1.98 3 3 C3.66 3 4.32 3 5 3 C5 4.32 5 5.64 5 7 C3.35 6.67 1.7 6.34 0 6 C-0.38218767 4.34385343 -0.71395102 2.67542976 -1 1 C-0.67 0.67 -0.34 0.34 0 0 Z " fill="#F30202" transform="translate(80,61)"/>
<path d="M0 0 C2.475 0.99 2.475 0.99 5 2 C5 2.66 5 3.32 5 4 C5.66 4 6.32 4 7 4 C6.34 5.98 5.68 7.96 5 10 C2.08772731 6.71195019 0.50298788 4.40114397 0 0 Z " fill="#EF0102" transform="translate(126,144)"/>
<path d="M0 0 C0.99 0.33 1.98 0.66 3 1 C2.01 2.485 2.01 2.485 1 4 C1 4.66 1 5.32 1 6 C0.34 6 -0.32 6 -1 6 C-1 7.65 -1 9.3 -1 11 C-1.99 10.01 -2.98 9.02 -4 8 C-2.25 2.25 -2.25 2.25 0 0 Z " fill="#F50202" transform="translate(36,121)"/>
<path d="M0 0 C1.27351308 2.54702616 0.80191925 3.4282945 0.0625 6.125 C-0.13214844 6.84945312 -0.32679687 7.57390625 -0.52734375 8.3203125 C-0.76130859 9.15175781 -0.76130859 9.15175781 -1 10 C-1.99 9.67 -2.98 9.34 -4 9 C-4.33 10.65 -4.66 12.3 -5 14 C-5.66 14 -6.32 14 -7 14 C-5.53967505 8.68972746 -3.01679014 4.53669968 0 0 Z " fill="#D01013" transform="translate(39,60)"/>
<path d="M0 0 C1.5 1.3125 1.5 1.3125 3 3 C3 3.99 3 4.98 3 6 C2.01 6.495 2.01 6.495 1 7 C0.67 7.99 0.34 8.98 0 10 C-0.66 10 -1.32 10 -2 10 C-3.04449911 6.86650268 -2.93423645 6.01031744 -2 3 C-1.34 3 -0.68 3 0 3 C0 2.01 0 1.02 0 0 Z " fill="#F40203" transform="translate(49,45)"/>
<path d="M0 0 C1.32 0 2.64 0 4 0 C4 1.32 4 2.64 4 4 C3.34 4 2.68 4 2 4 C2 4.99 2 5.98 2 7 C0.68 6.67 -0.64 6.34 -2 6 C-2 5.01 -2 4.02 -2 3 C-1.34 3 -0.68 3 0 3 C0 2.01 0 1.02 0 0 Z " fill="#F50202" transform="translate(65,68)"/>
<path d="M0 0 C2.0625 2.125 2.0625 2.125 4 5 C3.75 8.3125 3.75 8.3125 3 11 C0.0625 10.625 0.0625 10.625 -3 10 C-3.33 9.34 -3.66 8.68 -4 8 C-1.03 8.495 -1.03 8.495 2 9 C1.67 8.2575 1.34 7.515 1 6.75 C0 4 0 4 0 0 Z " fill="#D41212" transform="translate(18,160)"/>
<path d="M0 0 C0.99 0.33 1.98 0.66 3 1 C3.33 2.65 3.66 4.3 4 6 C2.68 6.33 1.36 6.66 0 7 C-0.66 5.35 -1.32 3.7 -2 2 C-1.34 1.34 -0.68 0.68 0 0 Z " fill="#F30202" transform="translate(101,45)"/>
<path d="M0 0 C0.99 0.33 1.98 0.66 3 1 C3 2.32 3 3.64 3 5 C3.66 5.33 4.32 5.66 5 6 C4.67 6.66 4.34 7.32 4 8 C3.01 8 2.02 8 1 8 C1 7.01 1 6.02 1 5 C0.34 5 -0.32 5 -1 5 C-0.67 3.35 -0.34 1.7 0 0 Z " fill="#F50104" transform="translate(94,84)"/>
<path d="M0 0 C0.99 0.66 1.98 1.32 3 2 C2.67 3.65 2.34 5.3 2 7 C0.35 6.67 -1.3 6.34 -3 6 C-2.67 4.68 -2.34 3.36 -2 2 C-1.34 2 -0.68 2 0 2 C0 1.34 0 0.68 0 0 Z " fill="#F00303" transform="translate(61,76)"/>
<path d="M0 0 C4.42857143 5.14285714 4.42857143 5.14285714 5 9 C4.34 9 3.68 9 3 9 C3 8.34 3 7.68 3 7 C0.525 6.01 0.525 6.01 -2 5 C-1.34 3.35 -0.68 1.7 0 0 Z " fill="#D50F11" transform="translate(128,139)"/>
<path d="M0 0 C0 4.24645065 -1.81750806 6.38524772 -4 10 C-4.33 10 -4.66 10 -5 10 C-5 8.35 -5 6.7 -5 5 C-4.34 5 -3.68 5 -3 5 C-3.33 4.01 -3.66 3.02 -4 2 C-2.68 1.34 -1.36 0.68 0 0 Z " fill="#D00F0E" transform="translate(40,122)"/>
<path d="M0 0 C1.32 0.33 2.64 0.66 4 1 C4.33 2.98 4.66 4.96 5 7 C4.01 7.33 3.02 7.66 2 8 C0.23537317 4.91190305 0 3.76687864 0 0 Z " fill="#F50304" transform="translate(113,69)"/>
<path d="M0 0 C0.66 0.33 1.32 0.66 2 1 C2 3.64 2 6.28 2 9 C1.67 8.34 1.34 7.68 1 7 C0.34 7 -0.32 7 -1 7 C-1.33 5.35 -1.66 3.7 -2 2 C-1.34 2 -0.68 2 0 2 C0 1.34 0 0.68 0 0 Z " fill="#F10303" transform="translate(57,83)"/>
<path d="M0 0 C0.66 0 1.32 0 2 0 C2.625 2.375 2.625 2.375 3 5 C2.34 5.66 1.68 6.32 1 7 C-1 6 -1 6 -1.75 4.0625 C-1.8325 3.381875 -1.915 2.70125 -2 2 C-1.34 1.34 -0.68 0.68 0 0 Z " fill="#F40202" transform="translate(106,53)"/>
<path d="M0 0 C0.66 0.66 1.32 1.32 2 2 C1.625 4.125 1.625 4.125 1 6 C-0.65 6.33 -2.3 6.66 -4 7 C-4 6.01 -4 5.02 -4 4 C-3.34 4 -2.68 4 -2 4 C-2 3.01 -2 2.02 -2 1 C-1.34 0.67 -0.68 0.34 0 0 Z " fill="#F20302" transform="translate(69,12)"/>
<path d="M0 0 C1.65 0.33 3.3 0.66 5 1 C4.34 2.98 3.68 4.96 3 7 C2.566875 6.0409375 2.566875 6.0409375 2.125 5.0625 C1.17176549 2.84793921 1.17176549 2.84793921 -1 2 C-0.67 1.34 -0.34 0.68 0 0 Z " fill="#F20304" transform="translate(79,10)"/>
<path d="M0 0 C1.32 0.66 2.64 1.32 4 2 C3.34 3.32 2.68 4.64 2 6 C1.34 6 0.68 6 0 6 C-0.66 4.68 -1.32 3.36 -2 2 C-1.34 1.34 -0.68 0.68 0 0 Z " fill="#E1080A" transform="translate(27,138)"/>
<path d="M0 0 C1.70840281 1.63412443 2.93453047 2.86906094 4 5 C4.04022391 7.3329866 4.04320247 9.66706666 4 12 C3.67 12 3.34 12 3 12 C3 10.35 3 8.7 3 7 C2.34 7 1.68 7 1 7 C0.67 4.69 0.34 2.38 0 0 Z " fill="#CE1619" transform="translate(136,102)"/>
<path d="M0 0 C0 3.86695678 -1.41909971 6.5088452 -3 10 C-3.33 10 -3.66 10 -4 10 C-3.67 7.03 -3.34 4.06 -3 1 C-2.01 0.67 -1.02 0.34 0 0 Z " fill="#CD1011" transform="translate(22,102)"/>
<path d="M0 0 C2.50037734 2.17424117 3.43628586 3.73045798 4 7 C1.525 6.01 1.525 6.01 -1 5 C-0.67 3.35 -0.34 1.7 0 0 Z " fill="#D90E0D" transform="translate(132,95)"/>
<path d="M0 0 C0.66 0.99 1.32 1.98 2 3 C1.34 4.32 0.68 5.64 0 7 C-0.99 7 -1.98 7 -3 7 C-1.125 1.125 -1.125 1.125 0 0 Z " fill="#D30F0E" transform="translate(54,85)"/>
<path d="M0 0 C0.99 0 1.98 0 3 0 C3.33 1.65 3.66 3.3 4 5 C2.0625 4.6875 2.0625 4.6875 0 4 C-0.33 3.01 -0.66 2.02 -1 1 C-0.67 0.67 -0.34 0.34 0 0 Z " fill="#F40101" transform="translate(119,77)"/>
<path d="M0 0 C0.99 0.33 1.98 0.66 3 1 C2.67 2.65 2.34 4.3 2 6 C1.01 5.67 0.02 5.34 -1 5 C-0.67 3.35 -0.34 1.7 0 0 Z " fill="#F70204" transform="translate(94,33)"/>
<path d="M0 0 C0.33 1.32 0.66 2.64 1 4 C0.34 4 -0.32 4 -1 4 C-1.33 5.65 -1.66 7.3 -2 9 C-2.66 9 -3.32 9 -4 9 C-2.94124926 5.59687262 -1.99097846 2.98646769 0 0 Z " fill="#CD1111" transform="translate(64,16)"/>
</svg>
